<svg width="84" height="84" viewBox="0 0 84 84" fill="none" xmlns="http://www.w3.org/2000/svg">
    <path d="M81.4059 61.7645C81.9 61.6409 82.1471 61.1468 82.0235 60.6527C81.9 60.1586 81.4059 59.9115 80.9118 60.0351C77.8235 60.8998 74.2412 58.0586 70.5353 58.6762C68.3118 58.9233 66.7059 60.2821 64.8529 60.8998C57.0706 63.7409 49.6588 55.7115 34.0941 60.4057C32.2412 59.1704 30.5118 58.1821 28.5353 57.4409C29.6471 52.6233 30.3882 49.7821 31.3765 45.088C32.6118 44.9645 35.2059 43.6057 39.0353 45.088C41.0118 45.8292 41.8765 47.0645 43.2353 48.5468C43.6059 48.9174 44.1 49.1645 44.4706 49.0409C45.0882 48.9174 45.4588 48.4233 45.8294 48.0527C47.8059 46.0762 51.0176 45.5821 53.4882 46.8174C54.4765 47.3115 55.3412 48.0527 56.3294 47.5586C57.1941 47.8057 57.8118 46.8174 57.3176 46.1998C52.6235 39.0351 47.5588 31.0057 39.9 27.1762C38.1706 26.3115 36.4412 25.6939 34.4647 25.3233C34.5882 24.5821 34.5882 23.0998 34.7118 22.7292C34.8353 22.2351 34.5882 21.7409 34.0941 21.6174C33.6 21.4939 33.1059 21.7409 32.9823 22.2351C32.7353 22.9762 32.7353 24.088 32.6118 24.9527C28.4118 24.2115 23.9647 24.4586 19.5176 25.6939C13.8353 27.2998 8.02941 31.0057 2.09999 36.8115C1.85294 37.0586 1.72941 37.5527 1.97646 38.0468C1.60588 39.1586 4.57058 39.1586 5.43529 38.9115C10.0059 37.5527 12.9706 39.0351 14.2059 41.2586C14.4529 41.7527 14.7 42.3704 15.1941 42.7409C16.1823 43.4821 17.5412 42.7409 18.6529 42.2468C20.1353 41.5057 21.6176 41.1351 23.2235 41.1351C24.2118 41.2586 25.3235 41.5057 25.9412 41.6292C28.1647 42.4939 28.6588 43.6057 29.4 44.3468C28.5353 48.7939 27.5471 52.1292 26.5588 56.6998C24.9529 56.0821 23.2235 55.7115 21.6176 55.3409C21.7412 54.9704 21.9882 54.4762 22.2353 54.1057C22.4823 53.6115 22.3588 53.1174 21.9882 52.8704C21.4941 52.6233 21 52.7468 20.7529 53.1174C20.3823 53.7351 20.1353 54.3527 19.8882 54.9704C19.6412 54.9704 19.5176 54.9704 19.2706 54.8468C19.1471 53.9821 19.1471 52.9939 19.2706 52.1292C19.3941 51.6351 19.0235 51.1409 18.5294 51.0174C18.0353 50.8939 17.5412 51.2645 17.4176 51.7586C17.2941 52.7468 17.2941 53.6115 17.4176 54.5998C14.5765 54.4762 11.7353 54.5998 9.01764 55.2174C9.01764 55.2174 9.01764 55.2174 9.01764 55.0939C8.77058 54.5998 8.77058 53.9821 8.89411 53.3645C9.01764 52.8704 8.77058 52.3762 8.27647 52.2527C7.90588 52.2527 7.41176 52.6233 7.28823 53.1174C7.04117 53.8586 7.04117 54.7233 7.28823 55.4645C6.67058 54.5998 6.17647 53.7351 6.05294 52.7468C5.92941 52.2527 5.43529 51.8821 4.94117 52.0057C4.44705 52.1292 4.07647 52.6233 4.19999 53.1174C4.44705 54.2292 4.94117 55.3409 5.55882 56.2057C4.44705 56.5762 3.45882 56.9468 2.47058 57.3174C1.97646 57.5645 1.72941 58.0586 1.97646 58.5527C2.22352 59.0468 2.71764 59.2939 3.21176 59.0468C10.6235 55.8351 19.0235 55.7115 26.5588 58.4292C25.9412 61.3939 25.8176 62.5056 25.2 63.6174L21.7412 63.2468C21.2471 63.1233 20.7529 63.6174 20.7529 64.1115C20.7529 64.6057 21.1235 65.0998 21.6176 65.0998C26.1882 65.4704 26.0647 65.5939 26.3118 65.4704C27.3 65.0998 28.4118 65.2233 29.2765 65.8409C29.6471 66.088 30.2647 66.088 30.5118 65.5939C30.7588 65.2233 30.7588 64.6056 30.2647 64.3586C29.4 63.7409 28.2882 63.4939 27.3 63.4939C27.6706 62.5057 27.7941 61.888 28.2882 59.0468C36.1941 62.5057 42.4941 69.1762 45.7059 77.3292C45.9529 77.8233 46.4471 78.0704 46.9412 77.8233C47.4353 77.5762 47.6824 77.0821 47.4353 76.588C45.0882 70.6586 41.1353 65.3468 36.1941 61.5174C50.7706 57.9351 57.1941 65.4704 65.5941 62.3821C67.4471 61.7645 69.1765 60.4057 70.9059 60.1586C74.1177 60.0351 77.7 62.8762 81.4059 61.7645ZM30.0176 26.4351C31.0059 26.5586 31.8706 26.5586 32.8588 26.8057C31.9941 31.3762 31.1294 36.3174 30.1412 41.3821C29.1529 40.6409 28.0412 40.1468 26.6823 39.7762C24.0882 39.1586 21.2471 38.788 18.6529 39.5292C23.2235 32.3645 26.4353 29.2762 30.0176 26.4351ZM38.0471 28.4115C41.2588 33.1057 43.2353 39.2821 43.4824 45.3351C40.5176 42.7409 36.0706 41.5057 31.6235 42.4939C32.6118 37.4292 33.4765 32.1174 34.4647 27.2998C35.8235 27.4233 36.9353 27.9174 38.0471 28.4115ZM54.1059 44.5939C52.8706 44.3468 51.6353 44.2233 50.4 44.2233C48.6706 44.2233 46.9412 44.7174 45.3353 45.7057C45.2118 40.2704 43.7294 34.7115 41.1353 30.0174C46.5706 33.4762 50.6471 39.1586 54.1059 44.5939ZM27.0529 26.4351C23.4706 29.5233 19.8882 33.8468 16.3059 39.6527C14.0823 36.4409 9.75882 35.6998 5.80588 36.0704C13.7118 28.9057 20.3823 26.6821 27.0529 26.4351Z" fill="#BEC5CF"/>
    <path d="M70.2881 69.1759C70.6587 69.5464 71.2764 69.4229 71.6469 69.0523C72.0175 68.6817 71.894 68.0641 71.5234 67.6935C70.1646 66.5817 68.0646 66.4582 65.594 67.3229C65.3469 67.4464 64.9764 67.57 64.7293 67.6935C61.0234 69.1759 60.8999 68.6817 57.9352 67.4464C54.7234 66.0876 50.894 66.2111 47.8058 67.6935C47.3116 67.9406 47.1881 68.4347 47.3116 68.9288C47.5587 69.4229 48.0528 69.5464 48.5469 69.4229C51.2646 68.1876 54.4764 68.0641 57.194 69.1759C58.3058 69.67 59.4175 70.2876 60.6528 70.4111C62.6293 70.6582 64.3587 69.7935 66.2116 69.0523C67.1999 68.8053 69.1764 68.1876 70.2881 69.1759Z" fill="#BEC5CF"/>
    <path d="M73.7471 74.7349C74.8589 74.7349 76.8354 75.9702 78.4412 74.7349C78.8118 74.4878 78.9354 73.8702 78.6883 73.4996C78.4412 73.129 77.8236 73.0055 77.453 73.2525C76.5883 73.7466 75.1059 72.8819 73.8706 72.8819C71.7706 72.7584 69.5471 74.6113 68.3118 73.6231C67.9412 73.376 67.3236 73.4996 67.0765 73.8702C66.8295 74.2407 66.953 74.8584 67.3236 75.1055C69.4236 76.7113 72.0177 74.6113 73.7471 74.7349Z" fill="#BEC5CF"/>
    <path d="M73.0059 35.8234C71.6471 35.8234 70.4118 36.441 69.4236 37.4292C69.1765 36.8116 68.806 36.1939 68.4354 35.6998C68.0648 35.3292 67.5707 35.2057 67.0765 35.5763C66.7059 35.9469 66.5824 36.441 66.953 36.9351C67.6942 37.7998 68.0648 38.9116 68.0648 40.0234C68.0648 40.5175 68.4354 40.8881 68.8059 40.8881C69.3001 41.0116 69.6707 40.641 69.7942 40.2704C70.1648 38.9116 71.6471 37.7998 73.0059 37.7998C73.5001 37.7998 73.8707 37.3057 73.8707 36.8116C73.8707 36.3175 73.5001 35.8234 73.0059 35.8234Z" fill="#BEC5CF"/>
    <path d="M34.9587 9.01721C33.7234 9.26427 32.8587 10.2525 32.3646 11.3643L30.5117 10.2525C30.0175 10.0054 29.5234 10.129 29.2764 10.6231C29.0293 11.1172 29.1528 11.6113 29.6469 11.8584L32.7352 13.5878C33.1058 13.7113 33.4764 13.7113 33.7234 13.5878C33.9705 13.3407 34.2175 13.0937 34.094 12.7231C33.9705 11.8584 34.5881 10.9937 35.4528 10.8702C35.9469 10.7466 36.3175 10.2525 36.194 9.75839C35.9469 9.14074 35.4528 8.89368 34.9587 9.01721Z" fill="#BEC5CF"/>
    <path d="M54.2294 17.6643C55.4647 21.3702 59.4177 23.9643 63.2471 23.5937C67.8177 23.2232 71.5235 18.8996 71.153 14.6996V14.5761C71.153 9.88198 67.3235 6.05257 62.6294 6.05257C56.5765 5.92904 52.3765 12.229 54.2294 17.6643ZM69.3 14.4526C69.3 18.1585 66.3353 21.1232 62.6294 21.1232C58.9235 21.1232 55.9588 18.1585 55.9588 14.4526C55.9588 10.7467 58.9235 7.78198 62.6294 7.78198C66.3353 7.78198 69.3 10.8702 69.3 14.4526Z" fill="#BEC5CF"/>
</svg>
