<svg width="90" height="90" viewBox="0 0 90 90" fill="none" xmlns="http://www.w3.org/2000/svg">
<path d="M72.7988 43.0656C72.8139 47.3703 69.784 52.62 66.0342 54.7949L46.3704 66.1342C45.3805 75.1337 39.0959 79.4084 37.176 80.5184C36.831 80.7283 36.6361 80.8184 36.621 80.8184L29.7815 76.8436C30.2915 76.2286 30.6964 75.6136 31.0264 74.9837C29.2415 75.9136 27.6366 75.9437 26.4666 75.2236L19.702 71.2939C18.4871 70.589 17.7222 69.0891 17.7222 66.9442L17.6471 41.4907C17.6322 37.186 20.662 31.9363 24.4268 29.7614L59.0746 9.75266C60.9645 8.65766 62.6745 8.56767 63.9044 9.28769L70.684 13.2324C71.9289 13.9224 72.7088 15.4373 72.7239 17.6122L72.7988 43.0656Z" fill="#3D8393"/>
<path d="M65.9106 13.7339C69.6622 11.5679 72.7149 13.3017 72.7272 17.6126L72.7993 43.0649C72.8115 47.3758 69.7786 52.6232 66.027 54.7892L46.3728 66.1365C45.3743 75.1371 39.102 79.4118 37.1806 80.5211C36.8279 80.7248 36.6322 80.8168 36.6219 80.8217C40.3671 76.381 38.627 70.9474 38.5354 70.6615L31.3815 74.7918C27.6248 76.9607 24.5721 75.2269 24.5599 70.916L24.4877 45.4637C24.4755 41.1528 27.5084 35.9054 31.2651 33.7365L65.9106 13.7339Z" fill="#41BECE"/>
<path d="M31.3624 51.749L30.0751 56.2272L33.6829 55.1055L30.9639 59.7751L33.8173 60.5591L36.7301 55.5309L37.8946 58.2939L40.471 54.9965L38.8678 52.8589L42.0742 50.1869L41.0054 46.9804L37.799 50.1869L38.1207 45.6717L34.6443 47.603L34.6381 51.5087L31.3624 51.749Z" fill="#E7FAFF"/>
<path d="M45.2567 43.1323L43.9694 47.6105L47.5772 46.4888L44.8582 51.1584L47.7116 51.9424L50.6244 46.9142L51.7888 49.6772L54.3653 46.3798L52.762 44.2422L55.9685 41.5702L54.8997 38.3637L51.6932 41.5702L52.015 37.055L48.5386 38.9863L48.5324 42.892L45.2567 43.1323Z" fill="#E7FAFF"/>
<path d="M59.1515 34.5191L57.8642 38.9972L61.472 37.8755L58.7529 42.5451L61.6064 43.3291L64.5192 38.3009L65.6836 41.0639L68.26 37.7665L66.6568 35.6289L69.8632 32.9569L68.7944 29.7505L65.588 32.9569L65.9097 28.4417L62.4333 30.373L62.4272 34.2787L59.1515 34.5191Z" fill="#E7FAFF"/>
</svg>
