<!-- w23 / h22 -->
<svg width="1.045em" height="1em" viewBox="0 0 23 22" fill="none" xmlns="http://www.w3.org/2000/svg">
    <path d="M14.1706 1.52649C13.7896 1.17772 13.2886 0.989277 12.7719 1.00047C12.2553 1.01167 11.7629 1.22163 11.3974 1.58658L1.92068 11.0526C1.73444 11.2385 1.58671 11.4593 1.48592 11.7023C1.38513 11.9453 1.33325 12.2058 1.33325 12.4688C1.33325 12.7318 1.38513 12.9923 1.48592 13.2353C1.58671 13.4783 1.73444 13.6991 1.92068 13.8851L3.24708 15.2083C3.74413 15.7062 4.4589 15.586 4.88002 15.3056C5.18306 15.1044 5.54648 15.0142 5.90856 15.0503C6.27063 15.0863 6.60906 15.2465 6.86635 15.5034C7.12365 15.7604 7.28396 16.0984 7.32007 16.46C7.35618 16.8216 7.26585 17.1845 7.06443 17.4872C6.78512 17.9078 6.66479 18.6231 7.16184 19.1195L8.45816 20.4127C8.64796 20.6024 8.87399 20.7522 9.12284 20.853C9.37169 20.9539 9.63829 21.0038 9.90682 20.9998C10.1753 20.9958 10.4403 20.9379 10.6861 20.8297C10.9318 20.7215 11.1532 20.5651 11.3373 20.3698L20.7883 10.3387C20.9702 10.1456 21.1119 9.91839 21.2053 9.67018C21.2986 9.42197 21.3416 9.15773 21.3319 8.89277C21.3222 8.62782 21.2599 8.36743 21.1486 8.12671C21.0373 7.88599 20.8793 7.66973 20.6837 7.49047L19.4132 6.32743C19.2737 6.20297 19.1071 6.11269 18.9266 6.06377C18.746 6.01485 18.5566 6.00863 18.3732 6.04561C18.0481 6.10284 17.7401 6.2745 17.5167 6.5177C17.3768 6.67005 17.2083 6.79341 17.0207 6.88072C16.8331 6.96802 16.6301 7.01758 16.4234 7.02654C16.2166 7.03551 16.0101 7.00372 15.8156 6.93298C15.6212 6.86224 15.4425 6.75394 15.29 6.61426C15.1374 6.47458 15.0139 6.30627 14.9265 6.11892C14.8391 5.93157 14.7895 5.72886 14.7805 5.52236C14.7715 5.31586 14.8034 5.10962 14.8742 4.91541C14.945 4.7212 15.0535 4.54282 15.1933 4.39046C15.4182 4.15013 15.5629 3.82825 15.5929 3.49923C15.6138 3.31355 15.5909 3.12559 15.5263 2.95027C15.4616 2.77495 15.3569 2.6171 15.2205 2.48926L14.1706 1.52649Z" stroke="currentColor" stroke-width="1.5"/>
</svg>
