<!-- w65 / h64 =  -->
<svg width="1.015625em" height="1em" viewBox="0 0 65 64" fill="none" xmlns="http://www.w3.org/2000/svg">
    <g filter="url(#filter0_d_192_7759)">
    <rect x="10.3333" y="8" width="44" height="44" rx="22" fill="white" fill-opacity="0.7" shape-rendering="crispEdges"/>
    <rect x="10.8333" y="8.5" width="43" height="43" rx="21.5" stroke="white" stroke-opacity="0.5" shape-rendering="crispEdges"/>
    <path d="M35.1706 20.5265C34.7896 20.1777 34.2886 19.9893 33.7719 20.0005C33.2553 20.0117 32.7629 20.2216 32.3974 20.5866L22.9207 30.0526C22.7344 30.2385 22.5867 30.4593 22.4859 30.7023C22.3851 30.9453 22.3333 31.2058 22.3333 31.4688C22.3333 31.7318 22.3851 31.9923 22.4859 32.2353C22.5867 32.4783 22.7344 32.6991 22.9207 32.8851L24.2471 34.2083C24.7441 34.7062 25.4589 34.586 25.88 34.3056C26.1831 34.1044 26.5465 34.0142 26.9086 34.0503C27.2706 34.0863 27.6091 34.2465 27.8664 34.5034C28.1237 34.7604 28.284 35.0984 28.3201 35.46C28.3562 35.8216 28.2659 36.1845 28.0644 36.4872C27.7851 36.9078 27.6648 37.6231 28.1618 38.1195L29.4582 39.4127C29.648 39.6024 29.874 39.7522 30.1228 39.853C30.3717 39.9539 30.6383 40.0038 30.9068 39.9998C31.1753 39.9958 31.4403 39.9379 31.6861 39.8297C31.9318 39.7215 32.1532 39.5651 32.3373 39.3698L41.7883 29.3387C41.9702 29.1456 42.1119 28.9184 42.2053 28.6702C42.2986 28.422 42.3416 28.1577 42.3319 27.8928C42.3222 27.6278 42.2599 27.3674 42.1486 27.1267C42.0373 26.886 41.8793 26.6697 41.6837 26.4905L40.4132 25.3274C40.2737 25.203 40.1071 25.1127 39.9266 25.0638C39.746 25.0148 39.5566 25.0086 39.3732 25.0456C39.0481 25.1028 38.7401 25.2745 38.5167 25.5177C38.3768 25.6701 38.2083 25.7934 38.0207 25.8807C37.8331 25.968 37.6301 26.0176 37.4234 26.0265C37.2166 26.0355 37.0101 26.0037 36.8156 25.933C36.6212 25.8622 36.4425 25.7539 36.29 25.6143C36.1374 25.4746 36.0139 25.3063 35.9265 25.1189C35.8391 24.9316 35.7895 24.7289 35.7805 24.5224C35.7715 24.3159 35.8034 24.1096 35.8742 23.9154C35.945 23.7212 36.0535 23.5428 36.1933 23.3905C36.4182 23.1501 36.5629 22.8283 36.5929 22.4992C36.6138 22.3136 36.5909 22.1256 36.5263 21.9503C36.4616 21.775 36.3569 21.6171 36.2205 21.4893L35.1706 20.5265Z" stroke="currentColor" stroke-width="1.5"/>
    </g>
    <defs>
    <filter id="filter0_d_192_7759" x="0.333252" y="-2" width="64" height="66" filterUnits="userSpaceOnUse" color-interpolation-filters="sRGB">
    <feFlood flood-opacity="0" result="BackgroundImageFix"/>
    <feColorMatrix in="SourceAlpha" type="matrix" values="0 0 0 0 0 0 0 0 0 0 0 0 0 0 0 0 0 0 127 0" result="hardAlpha"/>
    <feOffset dy="2"/>
    <feGaussianBlur stdDeviation="5"/>
    <feComposite in2="hardAlpha" operator="out"/>
    <feColorMatrix type="matrix" values="0 0 0 0 0 0 0 0 0 0 0 0 0 0 0 0 0 0 0.1 0"/>
    <feBlend mode="normal" in2="BackgroundImageFix" result="effect1_dropShadow_192_7759"/>
    <feBlend mode="normal" in="SourceGraphic" in2="effect1_dropShadow_192_7759" result="shape"/>
    </filter>
    </defs>
</svg>
