<!-- w18 / h18 -->
<svg width="1em" height="1em" viewBox="0 0 18 18" fill="none" xmlns="http://www.w3.org/2000/svg">
    <path d="M5.61913 8.09595L9.00017 9.00175L12.3812 9.90756L15.7619 10.8137C16.5802 7.75924 15.247 4.63581 12.6913 3.0517C12.1079 2.69062 11.4747 2.41726 10.8118 2.24039C10.0509 2.03567 9.26093 1.96089 8.47516 2.01919C5.59218 2.23619 3.02911 4.23891 2.2388 7.18979L5.61913 8.09595Z" stroke="currentColor" stroke-width="1.5" stroke-linecap="round" stroke-linejoin="round"/>
    <path d="M6.29572 8.27709C6.29572 8.27709 6.57957 6.54143 7.70868 5.03221C8.83779 3.523 10.8118 2.24023 10.8118 2.24023C10.8118 2.24023 11.8804 4.33851 12.1037 6.20997C12.327 8.08144 11.7047 9.72681 11.7047 9.72681" stroke="currentColor" stroke-width="1.5" stroke-linecap="round" stroke-linejoin="round"/>
    <path d="M2.2387 7.18994L5.61938 8.09575L9.00007 9.00156M9.00007 9.00156L12.3804 9.90737L15.7614 10.8135M9.00007 9.00156L7.07505 16.0016M2 16.0016H16.0001M8.47506 2.01934C9.2608 1.96081 10.0508 2.03536 10.8117 2.23984C11.4746 2.41693 12.1079 2.69052 12.6912 3.05185" stroke="currentColor" stroke-width="1.5" stroke-linecap="round" stroke-linejoin="round"/>
</svg>
