<svg width="44" height="44" viewBox="0 0 44 44" fill="none" xmlns="http://www.w3.org/2000/svg">
<rect width="44" height="44" rx="12" fill="#F5D8AC"/>
<g clip-path="url(#clip0_188_4562)">
<path d="M17.7459 23.3282C17.7459 23.3282 17.3503 23.7284 17.2184 24.2619V18.5933H8.05419V24.3953C7.92233 23.7951 7.72454 23.3282 7.52675 23.3282C6.99931 23.3282 6.7356 25.3956 6.7356 26.7961C6.7356 28.1966 6.93339 30.264 7.52675 30.264C7.79047 30.264 7.98826 29.7971 8.05419 29.1969V38.9336H8.91128H16.2954H16.0317H16.4273L17.1525 32.198V29.2636C17.2844 29.7971 17.4162 30.1973 17.6799 30.1973C18.2074 30.1973 18.4711 28.1299 18.4711 26.7294C18.4711 25.3289 18.2733 23.2615 17.6799 23.2615L17.7459 23.3282ZM8.97721 36.8663V36.5995H16.2295V36.8663H8.97721ZM8.97721 35.6658V35.3991H16.2295V35.6658H8.97721ZM8.97721 34.4654V34.1987H16.2295V34.4654H8.97721ZM16.2295 33.265H8.97721V32.9982H16.2295V33.265ZM8.97721 31.3977V31.1309H16.2295V31.3977H8.97721ZM16.2295 20.7273V20.9941H8.97721V20.7273H16.2295ZM16.2295 21.9277V22.1945H8.97721V21.9277H16.2295ZM16.2295 23.1282V23.3949H8.97721V23.1282H16.2295ZM8.97721 24.3286H16.2295V24.5953H8.97721V24.3286ZM8.97721 30.1306V29.8638H16.2295V30.1306H8.97721ZM8.97721 28.9302V28.6634H16.2295V28.9302H8.97721ZM8.97721 27.7298V27.463H16.2295V27.7298H8.97721ZM8.97721 26.5293V26.2626H16.2295V26.5293H8.97721ZM16.2295 19.7937H8.97721V19.5269H16.2295V19.7937ZM8.97721 37.7999H16.2295V38.0667H8.97721V37.7999Z" fill="#161D25" fill-opacity="0.2"/>
<path d="M15.5702 17.5928H8.18604V18.4597H15.5702V17.5928Z" fill="white"/>
<path d="M15.5702 18.5931H8.18604V17.5928H15.5702V18.4597V18.5931ZM8.25196 18.4597H15.5042V17.6595H8.25196V18.4597Z" fill="white"/>
<path d="M15.5702 18.9268H8.18604V19.7937H15.5702V18.9268Z" fill="white"/>
<path d="M15.5702 19.8604H8.18604V18.9934H15.5702V19.8604ZM8.25196 19.727H15.5042V18.9268H8.25196V19.727Z" fill="white"/>
<path d="M15.5702 20.1938H8.18604V21.0608H15.5702V20.1938Z" fill="white"/>
<path d="M15.5702 21.1275H8.18604V20.2605H15.5702V21.1275ZM8.25196 20.9941H15.5042V20.1938H8.25196V20.9941Z" fill="white"/>
<path d="M15.5702 21.4609H8.18604V22.3279H15.5702V21.4609Z" fill="white"/>
<path d="M15.5702 22.3946H8.18604V21.5276H15.5702V22.3946ZM8.25196 22.2612H15.5042V21.4609H8.25196V22.2612Z" fill="white"/>
<path d="M15.5702 22.728H8.18604V23.595H15.5702V22.728Z" fill="white"/>
<path d="M15.5702 23.6617H8.18604V22.7947H15.5702V23.6617ZM8.25196 23.5283H15.5042V22.728H8.25196V23.5283Z" fill="white"/>
<path d="M15.5702 23.9951H8.18604V24.8621H15.5702V23.9951Z" fill="white"/>
<path d="M15.5702 24.9288H8.18604V24.0618H15.5702V24.9288ZM8.25196 24.7954H15.5042V23.9951H8.25196V24.7954Z" fill="white"/>
<path d="M16.4272 17.5928H15.5701V24.7953H16.4272V17.5928Z" fill="white"/>
<path d="M16.4272 24.862H15.5701V17.5928H16.4272V24.7953V24.862ZM15.5701 24.7953H16.3612V17.6595H15.5701V24.7953Z" fill="white"/>
<path d="M8.18594 17.5928H7.32886V24.7953H8.18594V17.5928Z" fill="white"/>
<path d="M8.18594 24.862H7.32886V17.5928H8.18594V24.7953V24.862ZM7.39479 24.7953H8.18594V17.6595H7.39479V24.7953Z" fill="white"/>
<path d="M15.5702 31.731H8.18604V32.5979H15.5702V31.731Z" fill="white"/>
<path d="M15.5702 32.6648H8.18604V31.7979H15.5702V32.6648ZM8.25196 32.5981H15.5042V31.7979H8.25196V32.5981Z" fill="white"/>
<path d="M15.5702 32.998H8.18604V33.865H15.5702V32.998Z" fill="white"/>
<path d="M15.5702 33.9319H8.18604V33.0649H15.5702V33.9319ZM8.25196 33.8652H15.5042V33.0649H8.25196V33.8652Z" fill="white"/>
<path d="M15.5702 34.2651H8.18604V35.1321H15.5702V34.2651Z" fill="white"/>
<path d="M15.5702 35.199H8.18604V34.332H15.5702V35.199ZM8.25196 35.1323H15.5042V34.332H8.25196V35.1323Z" fill="white"/>
<path d="M15.5702 35.5322H8.18604V36.3992H15.5702V35.5322Z" fill="white"/>
<path d="M15.5702 36.4661H8.18604V35.5991H15.5702V36.4661ZM8.25196 36.3994H15.5042V35.5991H8.25196V36.3994Z" fill="white"/>
<path d="M15.5702 36.7993H8.18604V37.6663H15.5702V36.7993Z" fill="white"/>
<path d="M15.5702 37.7332H8.18604V36.8662H15.5702V37.7332ZM8.25196 37.6665H15.5042V36.8662H8.25196V37.6665Z" fill="white"/>
<path d="M15.5702 38.0664H8.18604V38.9334H15.5702V38.0664Z" fill="white"/>
<path d="M15.5702 39.0003H8.18604V38.1333H15.5702V39.0003ZM8.25196 38.9336H15.5042V38.1333H8.25196V38.9336Z" fill="white"/>
<path d="M16.4272 31.731H15.5701V38.9335H16.4272V31.731Z" fill="white"/>
<path d="M16.4272 39.0003H15.5701V31.7979H16.4272V39.0003ZM15.5701 38.9337H16.3612V31.7979H15.5701V38.9337Z" fill="white"/>
<path d="M8.18594 31.731H7.32886V38.9335H8.18594V31.731Z" fill="white"/>
<path d="M8.18594 39.0003H7.32886V31.7979H8.18594V39.0003ZM7.39479 38.9337H8.18594V31.7979H7.39479V38.9337Z" fill="white"/>
<path d="M15.5702 24.7285H8.18604V25.5955H15.5702V24.7285Z" fill="#DCDCDC"/>
<path d="M15.5702 25.6622H8.18604V24.7952H15.5702V25.6622ZM8.25196 25.5288H15.5042V24.7285H8.25196V25.5288Z" fill="#DCDCDC"/>
<path d="M15.5702 25.9956H8.18604V26.8626H15.5702V25.9956Z" fill="#DCDCDC"/>
<path d="M15.5702 26.9293H8.18604V26.0623H15.5702V26.9293ZM8.25196 26.7959H15.5042V25.9956H8.25196V26.7959Z" fill="#DCDCDC"/>
<path d="M15.5702 27.2627H8.18604V28.1297H15.5702V27.2627Z" fill="#DCDCDC"/>
<path d="M15.5702 28.1964H8.18604V27.3294H15.5702V28.1964ZM8.25196 28.063H15.5042V27.2627H8.25196V28.063Z" fill="#DCDCDC"/>
<path d="M15.5702 28.5298H8.18604V29.3968H15.5702V28.5298Z" fill="#DCDCDC"/>
<path d="M15.5702 29.4634H8.18604V28.5965H15.5702V29.4634ZM8.25196 29.3301H15.5042V28.5298H8.25196V29.3301Z" fill="#DCDCDC"/>
<path d="M15.5702 29.7969H8.18604V30.6638H15.5702V29.7969Z" fill="#DCDCDC"/>
<path d="M15.5702 30.7305H8.18604V29.8636H15.5702V30.7305ZM8.25196 30.5972H15.5042V29.7969H8.25196V30.5972Z" fill="#DCDCDC"/>
<path d="M15.5702 31.064H8.18604V31.9309H15.5702V31.064Z" fill="#DCDCDC"/>
<path d="M15.5702 31.9976H8.18604V31.1307H15.5702V31.9976ZM8.25196 31.8642H15.5042V31.064H8.25196V31.8642Z" fill="#DCDCDC"/>
<path d="M16.4272 24.7285H15.5701V31.931H16.4272V24.7285Z" fill="#DCDCDC"/>
<path d="M16.4272 31.9977H15.5701V24.7952H16.4272V31.9977ZM15.5701 31.8643H16.3612V24.7285H15.5701V31.8643Z" fill="#DCDCDC"/>
<path d="M8.18594 24.7285H7.32886V31.931H8.18594V24.7285Z" fill="#DCDCDC"/>
<path d="M8.18594 31.9977H7.32886V24.7952H8.18594V31.9977ZM7.39479 31.8643H8.18594V24.7285H7.39479V31.8643Z" fill="#DCDCDC"/>
<path d="M7.39478 26.2626C7.39478 28.1966 7.13106 29.7971 6.73548 29.7971C6.3399 29.7971 6.01025 28.1966 6.01025 26.2626C6.01025 24.3286 6.27397 22.728 6.66955 22.728C7.06513 22.728 7.32885 24.3286 7.32885 26.2626H7.39478Z" fill="#DCDCDC"/>
<path d="M6.73549 29.8636C6.20806 29.8636 5.94434 27.6629 5.94434 26.2624C5.94434 24.8619 6.14213 22.6611 6.73549 22.6611C7.32886 22.6611 7.52665 24.8619 7.52665 26.2624C7.52665 27.6629 7.32886 29.8636 6.73549 29.8636ZM6.73549 22.7945C6.73549 22.7945 6.14213 24.1283 6.14213 26.2624C6.14213 28.3965 6.47177 29.7302 6.73549 29.7302C6.99921 29.7302 7.32886 28.3965 7.32886 26.2624C7.32886 24.1283 6.99921 22.7945 6.73549 22.7945Z" fill="white"/>
<path d="M17.6799 26.2626C17.6799 28.1966 17.3503 29.7971 17.0206 29.7971C16.691 29.7971 16.3613 28.1966 16.3613 26.2626C16.3613 24.3286 16.691 22.728 17.0206 22.728C17.3503 22.728 17.6799 24.3286 17.6799 26.2626Z" fill="#DCDCDC"/>
<path d="M17.0206 29.8636C16.4932 29.8636 16.2295 27.6629 16.2295 26.2624C16.2295 24.8619 16.4273 22.6611 17.0206 22.6611C17.614 22.6611 17.8118 24.8619 17.8118 26.2624C17.8118 27.6629 17.614 29.8636 17.0206 29.8636ZM17.0206 22.7945C17.0206 22.7945 16.4273 24.1283 16.4273 26.2624C16.4273 28.3965 16.7569 29.7302 17.0206 29.7302C17.2844 29.7302 17.614 28.3965 17.614 26.2624C17.614 24.1283 17.2844 22.7945 17.0206 22.7945Z" fill="white"/>
</g>
<g clip-path="url(#clip1_188_4562)">
<path d="M37.2644 23.3282C37.2644 23.3282 36.8688 23.7284 36.737 24.2619V18.5933H27.5727V24.3953C27.4409 23.7951 27.2431 23.3282 27.0453 23.3282C26.5179 23.3282 26.2542 25.3956 26.2542 26.7961C26.2542 28.1966 26.4519 30.264 27.0453 30.264C27.309 30.264 27.5068 29.7971 27.5727 29.1969V38.9336H28.4298H35.814H35.5503H35.9458L36.6711 32.198V29.2636C36.8029 29.7971 36.9348 30.1973 37.1985 30.1973C37.7259 30.1973 37.9897 28.1299 37.9897 26.7294C37.9897 25.3289 37.7919 23.2615 37.1985 23.2615L37.2644 23.3282ZM28.4958 36.8663V36.5995H35.748V36.8663H28.4958ZM28.4958 35.6658V35.3991H35.748V35.6658H28.4958ZM28.4958 34.4654V34.1987H35.748V34.4654H28.4958ZM35.748 33.265H28.4958V32.9982H35.748V33.265ZM28.4958 31.3977V31.1309H35.748V31.3977H28.4958ZM35.748 20.7273V20.9941H28.4958V20.7273H35.748ZM35.748 21.9277V22.1945H28.4958V21.9277H35.748ZM35.748 23.1282V23.3949H28.4958V23.1282H35.748ZM28.4958 24.3286H35.748V24.5953H28.4958V24.3286ZM28.4958 30.1306V29.8638H35.748V30.1306H28.4958ZM28.4958 28.9302V28.6634H35.748V28.9302H28.4958ZM28.4958 27.7298V27.463H35.748V27.7298H28.4958ZM28.4958 26.5293V26.2626H35.748V26.5293H28.4958ZM35.748 19.7937H28.4958V19.5269H35.748V19.7937ZM28.4958 37.7999H35.748V38.0667H28.4958V37.7999Z" fill="#161D25" fill-opacity="0.2"/>
<path d="M35.0887 17.5928H27.7046V18.4597H35.0887V17.5928Z" fill="white"/>
<path d="M35.0887 18.5931H27.7046V17.5928H35.0887V18.4597V18.5931ZM27.7705 18.4597H35.0228V17.6595H27.7705V18.4597Z" fill="white"/>
<path d="M35.0887 18.9268H27.7046V19.7937H35.0887V18.9268Z" fill="white"/>
<path d="M35.0887 19.8604H27.7046V18.9934H35.0887V19.8604ZM27.7705 19.727H35.0228V18.9268H27.7705V19.727Z" fill="white"/>
<path d="M35.0887 20.1938H27.7046V21.0608H35.0887V20.1938Z" fill="white"/>
<path d="M35.0887 21.1275H27.7046V20.2605H35.0887V21.1275ZM27.7705 20.9941H35.0228V20.1938H27.7705V20.9941Z" fill="white"/>
<path d="M35.0887 21.4609H27.7046V22.3279H35.0887V21.4609Z" fill="white"/>
<path d="M35.0887 22.3946H27.7046V21.5276H35.0887V22.3946ZM27.7705 22.2612H35.0228V21.4609H27.7705V22.2612Z" fill="white"/>
<path d="M35.0887 22.728H27.7046V23.595H35.0887V22.728Z" fill="white"/>
<path d="M35.0887 23.6617H27.7046V22.7947H35.0887V23.6617ZM27.7705 23.5283H35.0228V22.728H27.7705V23.5283Z" fill="white"/>
<path d="M35.0887 23.9951H27.7046V24.8621H35.0887V23.9951Z" fill="white"/>
<path d="M35.0887 24.9288H27.7046V24.0618H35.0887V24.9288ZM27.7705 24.7954H35.0228V23.9951H27.7705V24.7954Z" fill="white"/>
<path d="M35.9457 17.5928H35.0886V24.7953H35.9457V17.5928Z" fill="white"/>
<path d="M35.9457 24.862H35.0886V17.5928H35.9457V24.7953V24.862ZM35.0886 24.7953H35.8798V17.6595H35.0886V24.7953Z" fill="white"/>
<path d="M27.7045 17.5928H26.8474V24.7953H27.7045V17.5928Z" fill="white"/>
<path d="M27.7045 24.862H26.8474V17.5928H27.7045V24.7953V24.862ZM26.9133 24.7953H27.7045V17.6595H26.9133V24.7953Z" fill="white"/>
<path d="M35.0887 31.731H27.7046V32.5979H35.0887V31.731Z" fill="white"/>
<path d="M35.0887 32.6648H27.7046V31.7979H35.0887V32.6648ZM27.7705 32.5981H35.0228V31.7979H27.7705V32.5981Z" fill="white"/>
<path d="M35.0887 32.998H27.7046V33.865H35.0887V32.998Z" fill="white"/>
<path d="M35.0887 33.9319H27.7046V33.0649H35.0887V33.9319ZM27.7705 33.8652H35.0228V33.0649H27.7705V33.8652Z" fill="white"/>
<path d="M35.0887 34.2651H27.7046V35.1321H35.0887V34.2651Z" fill="white"/>
<path d="M35.0887 35.199H27.7046V34.332H35.0887V35.199ZM27.7705 35.1323H35.0228V34.332H27.7705V35.1323Z" fill="white"/>
<path d="M35.0887 35.5322H27.7046V36.3992H35.0887V35.5322Z" fill="white"/>
<path d="M35.0887 36.4661H27.7046V35.5991H35.0887V36.4661ZM27.7705 36.3994H35.0228V35.5991H27.7705V36.3994Z" fill="white"/>
<path d="M35.0887 36.7993H27.7046V37.6663H35.0887V36.7993Z" fill="white"/>
<path d="M35.0887 37.7332H27.7046V36.8662H35.0887V37.7332ZM27.7705 37.6665H35.0228V36.8662H27.7705V37.6665Z" fill="white"/>
<path d="M35.0887 38.0664H27.7046V38.9334H35.0887V38.0664Z" fill="white"/>
<path d="M35.0887 39.0003H27.7046V38.1333H35.0887V39.0003ZM27.7705 38.9336H35.0228V38.1333H27.7705V38.9336Z" fill="white"/>
<path d="M35.9457 31.731H35.0886V38.9335H35.9457V31.731Z" fill="white"/>
<path d="M35.9457 39.0003H35.0886V31.7979H35.9457V39.0003ZM35.0886 38.9337H35.8798V31.7979H35.0886V38.9337Z" fill="white"/>
<path d="M27.7045 31.731H26.8474V38.9335H27.7045V31.731Z" fill="white"/>
<path d="M27.7045 39.0003H26.8474V31.7979H27.7045V39.0003ZM26.9133 38.9337H27.7045V31.7979H26.9133V38.9337Z" fill="white"/>
<path d="M35.0887 24.7285H27.7046V25.5955H35.0887V24.7285Z" fill="#DCDCDC"/>
<path d="M35.0887 25.6622H27.7046V24.7952H35.0887V25.6622ZM27.7705 25.5288H35.0228V24.7285H27.7705V25.5288Z" fill="#DCDCDC"/>
<path d="M35.0887 25.9956H27.7046V26.8626H35.0887V25.9956Z" fill="#DCDCDC"/>
<path d="M35.0887 26.9293H27.7046V26.0623H35.0887V26.9293ZM27.7705 26.7959H35.0228V25.9956H27.7705V26.7959Z" fill="#DCDCDC"/>
<path d="M35.0887 27.2627H27.7046V28.1297H35.0887V27.2627Z" fill="#DCDCDC"/>
<path d="M35.0887 28.1964H27.7046V27.3294H35.0887V28.1964ZM27.7705 28.063H35.0228V27.2627H27.7705V28.063Z" fill="#DCDCDC"/>
<path d="M35.0887 28.5298H27.7046V29.3968H35.0887V28.5298Z" fill="#DCDCDC"/>
<path d="M35.0887 29.4634H27.7046V28.5965H35.0887V29.4634ZM27.7705 29.3301H35.0228V28.5298H27.7705V29.3301Z" fill="#DCDCDC"/>
<path d="M35.0887 29.7969H27.7046V30.6638H35.0887V29.7969Z" fill="#DCDCDC"/>
<path d="M35.0887 30.7305H27.7046V29.8636H35.0887V30.7305ZM27.7705 30.5972H35.0228V29.7969H27.7705V30.5972Z" fill="#DCDCDC"/>
<path d="M35.0887 31.064H27.7046V31.9309H35.0887V31.064Z" fill="#DCDCDC"/>
<path d="M35.0887 31.9976H27.7046V31.1307H35.0887V31.9976ZM27.7705 31.8642H35.0228V31.064H27.7705V31.8642Z" fill="#DCDCDC"/>
<path d="M35.9457 24.7285H35.0886V31.931H35.9457V24.7285Z" fill="#DCDCDC"/>
<path d="M35.9457 31.9977H35.0886V24.7952H35.9457V31.9977ZM35.0886 31.8643H35.8798V24.7285H35.0886V31.8643Z" fill="#DCDCDC"/>
<path d="M27.7045 24.7285H26.8474V31.931H27.7045V24.7285Z" fill="#DCDCDC"/>
<path d="M27.7045 31.9977H26.8474V24.7952H27.7045V31.9977ZM26.9133 31.8643H27.7045V24.7285H26.9133V31.8643Z" fill="#DCDCDC"/>
<path d="M26.9133 26.2626C26.9133 28.1966 26.6496 29.7971 26.254 29.7971C25.8585 29.7971 25.5288 28.1966 25.5288 26.2626C25.5288 24.3286 25.7925 22.728 26.1881 22.728C26.5837 22.728 26.8474 24.3286 26.8474 26.2626H26.9133Z" fill="#DCDCDC"/>
<path d="M26.254 29.8636C25.7266 29.8636 25.4629 27.6629 25.4629 26.2624C25.4629 24.8619 25.6607 22.6611 26.254 22.6611C26.8474 22.6611 27.0452 24.8619 27.0452 26.2624C27.0452 27.6629 26.8474 29.8636 26.254 29.8636ZM26.254 22.7945C26.254 22.7945 25.6607 24.1283 25.6607 26.2624C25.6607 28.3965 25.9903 29.7302 26.254 29.7302C26.5178 29.7302 26.8474 28.3965 26.8474 26.2624C26.8474 24.1283 26.5178 22.7945 26.254 22.7945Z" fill="white"/>
<path d="M37.1985 26.2626C37.1985 28.1966 36.8688 29.7971 36.5392 29.7971C36.2095 29.7971 35.8799 28.1966 35.8799 26.2626C35.8799 24.3286 36.2095 22.728 36.5392 22.728C36.8688 22.728 37.1985 24.3286 37.1985 26.2626Z" fill="#DCDCDC"/>
<path d="M36.5392 29.8636C36.0118 29.8636 35.748 27.6629 35.748 26.2624C35.748 24.8619 35.9458 22.6611 36.5392 22.6611C37.1326 22.6611 37.3304 24.8619 37.3304 26.2624C37.3304 27.6629 37.1326 29.8636 36.5392 29.8636ZM36.5392 22.7945C36.5392 22.7945 35.9458 24.1283 35.9458 26.2624C35.9458 28.3965 36.2755 29.7302 36.5392 29.7302C36.8029 29.7302 37.1326 28.3965 37.1326 26.2624C37.1326 24.1283 36.8029 22.7945 36.5392 22.7945Z" fill="white"/>
</g>
<g clip-path="url(#clip2_188_4562)">
<g style="mix-blend-mode:multiply">
<path d="M26.8649 7H17.5175L11 13.9259V23.6402L17.5175 30.5661H26.8649L33.4681 23.6402V13.9259L26.8649 7Z" fill="#161D25" fill-opacity="0.2"/>
</g>
<path d="M16.955 5L10.3518 11.9259L21.5858 16.7831L16.955 5Z" fill="white"/>
<path d="M10.3518 11.9258V21.6401L21.5858 16.7829L10.3518 11.9258Z" fill="#FFAA7B"/>
<path d="M10.3518 21.6399L16.955 28.5658L21.5858 16.7827L10.3518 21.6399Z" fill="#E6E6E6"/>
<path d="M26.2167 5H16.9551L21.5859 16.7831L26.2167 5Z" fill="#FFA776"/>
<path d="M16.9551 28.5658H26.2167L21.5859 16.7827L16.9551 28.5658Z" fill="#F87D39"/>
<path d="M26.2168 5L21.5859 16.7831L32.82 11.9259L26.2168 5Z" fill="#E6E6E6"/>
<path d="M32.82 21.6401V11.9258L21.5859 16.7829L32.82 21.6401Z" fill="#FF8947"/>
<path d="M26.2168 28.5658L32.82 21.6399L21.5859 16.7827L26.2168 28.5658Z" fill="#CED0D1"/>
</g>
<defs>
<clipPath id="clip0_188_4562">
<rect width="12.5926" height="21.4074" fill="white" transform="translate(5.94434 17.5928)"/>
</clipPath>
<clipPath id="clip1_188_4562">
<rect width="12.5926" height="21.4074" fill="white" transform="translate(25.4629 17.5928)"/>
</clipPath>
<clipPath id="clip2_188_4562">
<rect width="23.9259" height="27.0741" fill="white" transform="translate(10.3518 5)"/>
</clipPath>
</defs>
</svg>
