<!-- w24 / h24 -->
<svg width="1em" height="1em" viewBox="0 0 24 24" fill="none" xmlns="http://www.w3.org/2000/svg">
    <path d="M19.4667 9.35243V8.61922C19.4667 4.59544 16.2411 1.33398 12.2667 1.33398C8.29238 1.33398 5.0668 4.59544 5.0668 8.61922V9.35243C5.06808 10.2276 4.81191 11.0849 4.32867 11.8224L3.14681 13.6165C2.06842 15.2545 2.89188 17.4811 4.76813 17.999C9.67081 19.3528 14.8627 19.3528 19.7654 17.999C21.6416 17.4811 22.4651 15.2545 21.3867 13.6175L20.2048 11.8235C19.7212 11.086 19.4647 10.2288 19.4656 9.35347L19.4667 9.35243Z" stroke="currentColor" stroke-width="1.5"/>
    <path d="M7.46704 19.0137C8.1657 20.8316 10.0505 22.1337 12.267 22.1337C14.4835 22.1337 16.3683 20.8316 17.067 19.0137" stroke="currentColor" stroke-width="1.5" stroke-linecap="round"/>
</svg>
