<!-- w55 / h37 -->
<svg width="1.48em" height="1em" viewBox="0 0 55 37" fill="none" xmlns="http://www.w3.org/2000/svg">
    <path d="M15.8126 30.1874C18.0218 30.1874 19.8125 28.3966 19.8125 26.1874C19.8125 23.9783 18.0218 22.1875 15.8126 22.1875H10.8124C8.60327 22.1875 6.8125 23.9783 6.8125 26.1874C6.8125 28.3966 8.60327 30.1874 10.8124 30.1874H15.8126ZM8.81247 26.1874C8.81247 25.0829 9.70786 24.1875 10.8124 24.1875H15.8126C16.9172 24.1875 17.8126 25.0829 17.8126 26.1874C17.8126 27.292 16.9172 28.1874 15.8126 28.1874H10.8124C9.70786 28.1874 8.81247 27.292 8.81247 26.1874Z" fill="currentColor"/>
    <path d="M23.8123 25.1875H33.8126C34.3646 25.1875 34.8123 24.7398 34.8123 24.1877C34.8123 23.6352 34.3646 23.1875 33.8126 23.1875H23.8123C23.2602 23.1875 22.8125 23.6352 22.8125 24.1877C22.8125 24.7398 23.2602 25.1875 23.8123 25.1875Z" fill="currentColor"/>
    <path d="M23.8123 29.1875H26.6696C27.2217 29.1875 27.6694 28.7398 27.6694 28.1877C27.6694 27.6352 27.2217 27.1875 26.6696 27.1875H23.8123C23.2602 27.1875 22.8125 27.6352 22.8125 28.1877C22.8125 28.7398 23.2602 29.1875 23.8123 29.1875Z" fill="currentColor"/>
    <path d="M23.8123 6.18747H24.8125C25.3645 6.18747 25.8122 5.73978 25.8122 5.18771C25.8122 4.63519 25.3645 4.1875 24.8125 4.1875H23.8123C23.2602 4.1875 22.8125 4.63519 22.8125 5.18771C22.8125 5.73978 23.2602 6.18747 23.8123 6.18747Z" fill="currentColor"/>
    <path d="M10.8123 6.18747H19.8123C20.3649 6.18747 20.8126 5.73978 20.8126 5.18771C20.8126 4.63519 20.3649 4.1875 19.8123 4.1875H10.8123C10.2602 4.1875 9.8125 4.63519 9.8125 5.18771C9.8125 5.73978 10.2602 6.18747 10.8123 6.18747Z" fill="currentColor"/>
    <path d="M6.81247 4.1875H5.81271C5.26019 4.1875 4.8125 4.63519 4.8125 5.18771C4.8125 5.73978 5.26019 6.18747 5.81271 6.18747H6.81247C7.36499 6.18747 7.81268 5.73978 7.81268 5.18771C7.81268 4.63519 7.36499 4.1875 6.81247 4.1875Z" fill="currentColor"/>
    <path fill-rule="evenodd" clip-rule="evenodd" d="M54.8126 32.4173C54.8021 34.507 53.1019 36.1934 51.0127 36.1874H4.6124C2.52316 36.1934 0.823029 34.507 0.8125 32.4173V27.1873C0.8125 26.6353 1.26019 26.1876 1.81271 26.1876C2.36478 26.1876 2.81247 26.6353 2.81247 27.1873V32.4173C2.82254 33.4024 3.62729 34.1943 4.6124 34.1874H51.0127C51.9978 34.1943 52.8026 33.4024 52.8126 32.4173V17.1875H2.81247V21.1874C2.81247 21.7399 2.36478 22.1876 1.81271 22.1876C1.26019 22.1876 0.8125 21.7399 0.8125 21.1874V3.95766C0.823029 1.86797 2.52316 0.181565 4.6124 0.187516H51.0127C53.1019 0.181565 54.8021 1.86797 54.8126 3.95766V32.4173ZM2.81247 11.1876V15.1875H52.8126V11.1876H2.81247ZM52.8126 9.1876V3.95766C52.8026 2.97209 51.9978 2.18062 51.0127 2.18748H4.6124C3.62729 2.18062 2.82254 2.97209 2.81247 3.95766V9.1876H52.8126Z" fill="currentColor"/>
</svg>
