<svg width="1em" height="1em" viewBox="0 0 28 28" fill="none" xmlns="http://www.w3.org/2000/svg">
    <path d="M17.5007 11.6673L12.9975 16.2049C12.8267 16.377 12.5496 16.377 12.3788 16.2049L10.5007 14.3124M23.8212 10.753C23.4786 10.2959 23.2883 9.80065 23.2122 9.22922L22.9077 7.13398C22.7554 6.02922 21.8799 5.15303 20.738 4.96256L18.6445 4.65779C18.1116 4.5816 17.5787 4.35303 17.1219 4.04827L15.4852 2.82922C15.0284 2.48637 14.4955 2.33398 13.9626 2.33398C13.4297 2.33398 12.8968 2.48637 12.44 2.82922L10.7652 4.08637C10.3084 4.42922 9.81359 4.6197 9.24263 4.69589L7.18717 5.00065C6.0833 5.15303 5.20783 6.02922 5.01751 7.17208L4.71299 9.26732C4.63687 9.80065 4.40848 10.334 4.10397 10.7911L2.84785 12.4673C2.1627 13.3816 2.1627 14.6387 2.84785 15.5149L4.10397 17.1911C4.44655 17.6483 4.63687 18.1435 4.71299 18.7149L5.01751 20.8102C5.16976 21.9149 6.04524 22.7911 7.18717 22.9816L9.28069 23.2864C9.81359 23.3626 10.3465 23.5911 10.8033 23.8959L12.4781 25.153C13.3916 25.8387 14.6477 25.8387 15.5232 25.153L17.198 23.8959C17.6548 23.553 18.1496 23.3626 18.7206 23.2864L20.8141 22.9816C21.918 22.8292 22.7935 21.953 22.9838 20.8102L23.2883 18.7149C23.3644 18.1816 23.5928 17.6483 23.8973 17.1911L25.1535 15.5149C25.8386 14.6006 25.8386 13.3435 25.1535 12.4673L23.8212 10.753Z" stroke="currentColor" stroke-width="1.5" stroke-linecap="round"/>
</svg>
