<!-- w18 / h18 -->
<svg width="1em" height="1em" viewBox="0 0 18 18" fill="none" xmlns="http://www.w3.org/2000/svg">
    <path d="M4.5 9.75V3.75C4.5 2.92157 5.17157 2.25 6 2.25H12C12.8284 2.25 13.5 2.92157 13.5 3.75V9.75M10.5 5.25L8.78028 7.18469C8.63111 7.3525 8.36889 7.3525 8.21972 7.18469L7.5 6.375M3.75 15.75H14.25C15.0784 15.75 15.75 15.0784 15.75 14.25V10.1541C15.75 9.61133 15.1914 9.24828 14.6954 9.46871L9.60921 11.7292C9.22136 11.9016 8.77864 11.9016 8.39079 11.7292L3.30461 9.46871C2.80864 9.24828 2.25 9.61133 2.25 10.1541V14.25C2.25 15.0784 2.92157 15.75 3.75 15.75Z" stroke="currentColor" stroke-width="1.5" stroke-linecap="round"/>
</svg>
