<!-- w24 / h24 -->
<svg width="1em" height="1em" viewBox="0 0 24 24" fill="none" xmlns="http://www.w3.org/2000/svg">
    <path d="M16 4.75C16.4142 4.75 16.75 4.41421 16.75 4C16.75 3.58579 16.4142 3.25 16 3.25V4.75ZM5.09202 19.782L5.43251 19.1138H5.43251L5.09202 19.782ZM4.21799 18.908L3.54973 19.2485L4.21799 18.908ZM19.782 18.908L19.1138 18.5675L19.782 18.908ZM18.908 19.782L18.5675 19.1138L18.908 19.782ZM5.09202 4.21799L5.43251 4.88624H5.43251L5.09202 4.21799ZM4.21799 5.09202L4.88624 5.43251V5.43251L4.21799 5.09202ZM20.75 13C20.75 12.5858 20.4142 12.25 20 12.25C19.5858 12.25 19.25 12.5858 19.25 13H20.75ZM12.7721 14.2855L12.2399 13.757L12.7721 14.2855ZM21.5322 6.52848C21.824 6.23457 21.8224 5.7597 21.5285 5.46783C21.2346 5.17595 20.7597 5.17761 20.4678 5.47152L21.5322 6.52848ZM11.3529 14.2855L11.8851 13.757L11.3529 14.2855ZM8.53217 10.3806C8.2403 10.0867 7.76543 10.085 7.47152 10.3769C7.17761 10.6688 7.17595 11.1437 7.46783 11.4376L8.53217 10.3806ZM7.2 4.75H16V3.25H7.2V4.75ZM16.8 19.25H7.2V20.75H16.8V19.25ZM4.75 16.8V7.2H3.25V16.8H4.75ZM7.2 19.25C6.62757 19.25 6.24336 19.2494 5.94748 19.2252C5.66035 19.2018 5.52307 19.1599 5.43251 19.1138L4.75153 20.4503C5.08879 20.6221 5.44545 20.6892 5.82533 20.7203C6.19646 20.7506 6.65232 20.75 7.2 20.75V19.25ZM3.25 16.8C3.25 17.3477 3.24942 17.8035 3.27974 18.1747C3.31078 18.5546 3.37789 18.9112 3.54973 19.2485L4.88624 18.5675C4.8401 18.4769 4.79822 18.3396 4.77476 18.0525C4.75058 17.7566 4.75 17.3724 4.75 16.8H3.25ZM5.43251 19.1138C5.19731 18.9939 5.00608 18.8027 4.88624 18.5675L3.54973 19.2485C3.81338 19.7659 4.23408 20.1866 4.75153 20.4503L5.43251 19.1138ZM19.25 16.8C19.25 17.3724 19.2494 17.7566 19.2252 18.0525C19.2018 18.3396 19.1599 18.4769 19.1138 18.5675L20.4503 19.2485C20.6221 18.9112 20.6892 18.5546 20.7203 18.1747C20.7506 17.8035 20.75 17.3477 20.75 16.8H19.25ZM16.8 20.75C17.3477 20.75 17.8035 20.7506 18.1747 20.7203C18.5546 20.6892 18.9112 20.6221 19.2485 20.4503L18.5675 19.1138C18.4769 19.1599 18.3396 19.2018 18.0525 19.2252C17.7566 19.2494 17.3724 19.25 16.8 19.25V20.75ZM19.1138 18.5675C18.9939 18.8027 18.8027 18.9939 18.5675 19.1138L19.2485 20.4503C19.7659 20.1866 20.1866 19.7659 20.4503 19.2485L19.1138 18.5675ZM7.2 3.25C6.65232 3.25 6.19646 3.24942 5.82533 3.27974C5.44545 3.31078 5.08879 3.37789 4.75153 3.54973L5.43251 4.88624C5.52307 4.8401 5.66035 4.79822 5.94748 4.77476C6.24336 4.75058 6.62757 4.75 7.2 4.75V3.25ZM4.75 7.2C4.75 6.62757 4.75058 6.24336 4.77476 5.94748C4.79822 5.66035 4.8401 5.52307 4.88624 5.43251L3.54973 4.75153C3.37789 5.08879 3.31078 5.44545 3.27974 5.82533C3.24942 6.19646 3.25 6.65232 3.25 7.2H4.75ZM4.75153 3.54973C4.23408 3.81338 3.81338 4.23408 3.54973 4.75153L4.88624 5.43251C5.00608 5.19731 5.19731 5.00608 5.43251 4.88624L4.75153 3.54973ZM20.75 16.8V13H19.25V16.8H20.75ZM13.3042 14.814L21.5322 6.52848L20.4678 5.47152L12.2399 13.757L13.3042 14.814ZM11.8851 13.757L8.53217 10.3806L7.46783 11.4376L10.8208 14.814L11.8851 13.757ZM12.2399 13.757C12.1421 13.8554 11.9829 13.8554 11.8851 13.757L10.8208 14.814C11.5051 15.5031 12.6199 15.5031 13.3042 14.814L12.2399 13.757Z" fill="currentColor"/>
</svg>
