<svg width="1em" height="1em" viewBox="0 0 18 18" fill="none" xmlns="http://www.w3.org/2000/svg">
<path d="M12.6 13.5C13.4401 13.5 13.8601 13.5 14.181 13.3365C14.4632 13.1927 14.6927 12.9632 14.8365 12.681C15 12.3601 15 11.9401 15 11.1V3.9C15 3.05992 15 2.63988 14.8365 2.31901C14.6927 2.03677 14.4632 1.8073 14.181 1.66349C13.8601 1.5 13.4401 1.5 12.6 1.5H8.4C7.55992 1.5 7.13988 1.5 6.81901 1.66349C6.53677 1.8073 6.3073 2.03677 6.16349 2.31901C6 2.63988 6 3.05992 6 3.9M5.4 16.5H9.6C10.4401 16.5 10.8601 16.5 11.181 16.3365C11.4632 16.1927 11.6927 15.9632 11.8365 15.681C12 15.3601 12 14.9401 12 14.1V6.9C12 6.05992 12 5.63988 11.8365 5.31901C11.6927 5.03677 11.4632 4.8073 11.181 4.66349C10.8601 4.5 10.4401 4.5 9.6 4.5H5.4C4.55992 4.5 4.13988 4.5 3.81901 4.66349C3.53677 4.8073 3.3073 5.03677 3.16349 5.31901C3 5.63988 3 6.05992 3 6.9V14.1C3 14.9401 3 15.3601 3.16349 15.681C3.3073 15.9632 3.53677 16.1927 3.81901 16.3365C4.13988 16.5 4.55992 16.5 5.4 16.5Z" stroke="currentColor" stroke-width="1.5"/>
</svg>
