<svg width="19" height="18" viewBox="0 0 19 18" fill="none" xmlns="http://www.w3.org/2000/svg">
<path d="M10.25 2.25C10.25 1.83579 9.91421 1.5 9.5 1.5C9.08579 1.5 8.75 1.83579 8.75 2.25L10.25 2.25ZM8.75 10.5C8.75 10.9142 9.08579 11.25 9.5 11.25C9.91421 11.25 10.25 10.9142 10.25 10.5H8.75ZM13.0303 9.53033C13.3232 9.23744 13.3232 8.76256 13.0303 8.46967C12.7374 8.17678 12.2626 8.17678 11.9697 8.46967L13.0303 9.53033ZM10.0303 11.4697L9.5 10.9393L10.0303 11.4697ZM8.96967 11.4697L9.5 10.9393L9.5 10.9393L8.96967 11.4697ZM7.03033 8.46967C6.73744 8.17678 6.26256 8.17678 5.96967 8.46967C5.67678 8.76256 5.67678 9.23744 5.96967 9.53033L7.03033 8.46967ZM3.5 12C3.5 11.5858 3.16421 11.25 2.75 11.25C2.33579 11.25 2 11.5858 2 12H3.5ZM17 12C17 11.5858 16.6642 11.25 16.25 11.25C15.8358 11.25 15.5 11.5858 15.5 12H17ZM15.0215 15.5048L14.681 14.8365L15.0215 15.5048ZM16.0048 14.5215L16.673 14.862L16.0048 14.5215ZM2.99524 14.5215L2.32698 14.862L2.99524 14.5215ZM3.97852 15.5048L3.63803 16.173H3.63803L3.97852 15.5048ZM8.75 2.25L8.75 10.5H10.25L10.25 2.25L8.75 2.25ZM11.9697 8.46967L9.5 10.9393L10.5607 12L13.0303 9.53033L11.9697 8.46967ZM9.5 10.9393L7.03033 8.46967L5.96967 9.53033L8.43934 12L9.5 10.9393ZM9.5 10.9393L9.5 10.9393L8.43934 12C9.02513 12.5858 9.97487 12.5858 10.5607 12L9.5 10.9393ZM2 12V12.15H3.5V12H2ZM6.35 16.5H12.65V15H6.35V16.5ZM17 12.15V12H15.5V12.15H17ZM12.65 16.5C13.2677 16.5 13.7761 16.5006 14.1889 16.4669C14.6104 16.4324 14.998 16.3585 15.362 16.173L14.681 14.8365C14.5637 14.8963 14.3955 14.945 14.0667 14.9718C13.7292 14.9994 13.2924 15 12.65 15V16.5ZM15.5 12.15C15.5 12.7924 15.4994 13.2292 15.4718 13.5667C15.445 13.8955 15.3963 14.0637 15.3365 14.181L16.673 14.862C16.8585 14.498 16.9324 14.1104 16.9669 13.6889C17.0006 13.2761 17 12.7677 17 12.15H15.5ZM15.362 16.173C15.9265 15.8854 16.3854 15.4265 16.673 14.862L15.3365 14.181C15.1927 14.4632 14.9632 14.6927 14.681 14.8365L15.362 16.173ZM2 12.15C2 12.7677 1.99942 13.2761 2.03315 13.6889C2.06759 14.1104 2.14151 14.498 2.32698 14.862L3.66349 14.181C3.60372 14.0637 3.55503 13.8955 3.52816 13.5667C3.50058 13.2292 3.5 12.7924 3.5 12.15H2ZM6.35 15C5.70757 15 5.27085 14.9994 4.93328 14.9718C4.60447 14.945 4.43631 14.8963 4.31901 14.8365L3.63803 16.173C4.00203 16.3585 4.38956 16.4324 4.81113 16.4669C5.22395 16.5006 5.73232 16.5 6.35 16.5V15ZM2.32698 14.862C2.6146 15.4265 3.07354 15.8854 3.63803 16.173L4.31901 14.8365C4.03677 14.6927 3.8073 14.4632 3.66349 14.181L2.32698 14.862Z" fill="#A0A7B1"/>
</svg>
