<svg width="24" height="24" viewBox="0 0 24 24" fill="none" xmlns="http://www.w3.org/2000/svg">
<path d="M5.01198 16.9639L5.72349 17.2011H5.72349L5.01198 16.9639ZM5.76117 14.7163L5.04965 14.4792H5.04965L5.76117 14.7163ZM6.53421 13.4655L7.06454 13.9959L7.06454 13.9959L6.53421 13.4655ZM14.0001 5.9997L13.4697 5.46937V5.46937L14.0001 5.9997ZM18 9.9997L18.5304 10.53L18.5304 10.53L18 9.9997ZM10.5342 17.4655L10.0039 16.9352H10.0039L10.5342 17.4655ZM9.2834 18.2386L9.52057 18.9501H9.52057L9.2834 18.2386ZM7.03584 18.9878L7.27301 19.6993H7.27301L7.03584 18.9878ZM10.1242 17.8483L9.67249 17.2495L9.67248 17.2495L10.1242 17.8483ZM9.8091 18.043L9.47557 17.3712L9.8091 18.043ZM18.9637 7.11167L18.2916 7.44468V7.44468L18.9637 7.11167ZM18.9637 8.88773L18.2916 8.55472V8.55472L18.9637 8.88773ZM15.112 5.03609L15.445 5.7081V5.7081L15.112 5.03609ZM16.8881 5.03609L16.5551 5.7081V5.7081L16.8881 5.03609ZM5.95676 14.1907L6.62852 14.5242L6.62852 14.5242L5.95676 14.1907ZM6.15148 13.8756L5.55275 13.4239H5.55275L6.15148 13.8756ZM4.63928 18.7544L3.93285 19.0063L4.63928 18.7544ZM5.24531 19.3605L4.9934 20.0669H4.9934L5.24531 19.3605ZM13.5304 6.4694C13.2375 6.17651 12.7626 6.17651 12.4697 6.4694C12.1768 6.76229 12.1768 7.23717 12.4697 7.53006L13.5304 6.4694ZM16.4697 11.5301C16.7626 11.823 17.2375 11.823 17.5304 11.5301C17.8233 11.2372 17.8233 10.7623 17.5304 10.4694L16.4697 11.5301ZM5.72349 17.2011L6.47268 14.9535L5.04965 14.4792L4.30047 16.7267L5.72349 17.2011ZM7.06454 13.9959L14.5304 6.53003L13.4697 5.46937L6.00388 12.9352L7.06454 13.9959ZM17.4697 9.46937L10.0039 16.9352L11.0645 17.9959L18.5304 10.53L17.4697 9.46937ZM9.04623 17.5271L6.79867 18.2763L7.27301 19.6993L9.52057 18.9501L9.04623 17.5271ZM10.0039 16.9352C9.79051 17.1486 9.73246 17.2043 9.67249 17.2495L10.5758 18.447C10.7383 18.3244 10.8795 18.1809 11.0645 17.9959L10.0039 16.9352ZM9.52057 18.9501C9.76885 18.8673 9.96034 18.8052 10.1426 18.7147L9.47557 17.3712C9.40828 17.4046 9.33249 17.4316 9.04623 17.5271L9.52057 18.9501ZM9.67248 17.2495C9.61075 17.2961 9.54483 17.3368 9.47557 17.3712L10.1426 18.7147C10.295 18.6391 10.44 18.5495 10.5758 18.447L9.67248 17.2495ZM17.4697 6.53003C18.0578 7.1181 18.2143 7.28867 18.2916 7.44468L19.6357 6.77866C19.4215 6.34648 19.0328 5.9718 18.5304 5.46937L17.4697 6.53003ZM18.5304 10.53C19.0328 10.0276 19.4215 9.65292 19.6357 9.22074L18.2916 8.55472C18.2143 8.71073 18.0578 8.8813 17.4697 9.46937L18.5304 10.53ZM18.2916 7.44468C18.4649 7.7944 18.4649 8.205 18.2916 8.55472L19.6357 9.22074C20.0169 8.45135 20.0169 7.54804 19.6357 6.77865L18.2916 7.44468ZM14.5304 6.53003C15.1184 5.94196 15.289 5.78541 15.445 5.7081L14.779 4.36407C14.3468 4.57824 13.9721 4.96694 13.4697 5.46937L14.5304 6.53003ZM18.5304 5.46937C18.0279 4.96694 17.6533 4.57824 17.2211 4.36407L16.5551 5.7081C16.7111 5.78541 16.8817 5.94196 17.4697 6.53003L18.5304 5.46937ZM15.445 5.7081C15.7948 5.5348 16.2053 5.5348 16.5551 5.7081L17.2211 4.36407C16.4517 3.98281 15.5484 3.98281 14.779 4.36407L15.445 5.7081ZM6.47268 14.9535C6.5681 14.6673 6.59511 14.5915 6.62852 14.5242L5.285 13.8571C5.1945 14.0394 5.13241 14.2309 5.04965 14.4792L6.47268 14.9535ZM6.00388 12.9352C5.81882 13.1203 5.67531 13.2614 5.55275 13.4239L6.75022 14.3273C6.79546 14.2673 6.85117 14.2092 7.06454 13.9959L6.00388 12.9352ZM6.62852 14.5242C6.66291 14.4549 6.70365 14.389 6.75022 14.3273L5.55275 13.4239C5.45029 13.5597 5.36066 13.7047 5.285 13.8571L6.62852 14.5242ZM4.30047 16.7267C4.14234 17.2011 4.00658 17.606 3.92994 17.9322C3.85591 18.2472 3.79885 18.6306 3.93285 19.0063L5.34571 18.5025C5.36387 18.5534 5.3303 18.5301 5.39016 18.2753C5.44741 18.0317 5.55591 17.7038 5.72349 17.2011L4.30047 16.7267ZM6.79867 18.2763C6.29594 18.4438 5.96805 18.5523 5.72443 18.6096C5.46968 18.6694 5.44631 18.6359 5.49722 18.654L4.9934 20.0669C5.3692 20.2009 5.75254 20.1438 6.06756 20.0698C6.39371 19.9932 6.79864 19.8574 7.27301 19.6993L6.79867 18.2763ZM3.93285 19.0063C4.10929 19.5011 4.49863 19.8905 4.9934 20.0669L5.49722 18.654C5.42654 18.6288 5.37092 18.5732 5.34571 18.5025L3.93285 19.0063ZM12.4697 7.53006L16.4697 11.5301L17.5304 10.4694L13.5304 6.4694L12.4697 7.53006Z" fill="#BEC5CF"/>
</svg>
