<svg width="24" height="24" viewBox="0 0 24 24" fill="none" xmlns="http://www.w3.org/2000/svg">
<path d="M7.33209 7.5C7.33209 7.91421 7.66788 8.25 8.08209 8.25C8.4963 8.25 8.83209 7.91421 8.83209 7.5H7.33209ZM8.83209 16.5C8.83209 16.0858 8.4963 15.75 8.08209 15.75C7.66788 15.75 7.33209 16.0858 7.33209 16.5H8.83209ZM9.07564 20.8038L9.4132 20.1341H9.4132L9.07564 20.8038ZM8.28042 20.0172L7.61367 20.3606L7.61367 20.3606L8.28042 20.0172ZM18.8017 20.0172L19.4684 20.3606L18.8017 20.0172ZM18.0065 20.8038L17.6689 20.1341H17.6689L18.0065 20.8038ZM18.0065 3.19619L17.6689 3.86593V3.86593L18.0065 3.19619ZM18.8017 3.98282L18.1349 4.32625V4.32625L18.8017 3.98282ZM8.28042 3.98282L7.61367 3.63938V3.63938L8.28042 3.98282ZM9.07564 3.19619L8.73807 2.52645V2.52645L9.07564 3.19619ZM3.53296 11.25C3.11875 11.25 2.78296 11.5858 2.78296 12C2.78296 12.4142 3.11875 12.75 3.53296 12.75L3.53296 11.25ZM13.541 12.75C13.9553 12.75 14.291 12.4142 14.291 12C14.291 11.5858 13.9553 11.25 13.541 11.25V12.75ZM5.88006 9.8332C6.17454 9.5419 6.17711 9.06704 5.88582 8.77256C5.59452 8.47808 5.11965 8.4755 4.82517 8.7668L5.88006 9.8332ZM3.65249 10.9818L3.12504 10.4486H3.12504L3.65249 10.9818ZM3.65249 13.0182L3.12504 13.5514L3.12504 13.5514L3.65249 13.0182ZM4.82517 15.2332C5.11965 15.5245 5.59452 15.5219 5.88582 15.2274C6.17711 14.933 6.17454 14.4581 5.88006 14.1668L4.82517 15.2332ZM3.04453 11.7219L3.75708 11.9559H3.75708L3.04453 11.7219ZM3.04453 12.2781L3.75708 12.0441L3.04453 12.2781ZM8.83209 7.5V5.88H7.33209V7.5H8.83209ZM10.9935 3.75H16.0886V2.25H10.9935V3.75ZM18.25 5.88V18.12H19.75V5.88H18.25ZM16.0886 20.25H10.9935V21.75H16.0886V20.25ZM8.83209 18.12V16.5H7.33209V18.12H8.83209ZM10.9935 20.25C10.4717 20.25 10.125 20.2494 9.85881 20.2279C9.60112 20.2071 9.4852 20.1704 9.4132 20.1341L8.73807 21.4736C9.05532 21.6335 9.3888 21.6948 9.73797 21.723C10.0786 21.7506 10.4962 21.75 10.9935 21.75V20.25ZM7.33209 18.12C7.33209 18.6115 7.33149 19.0258 7.35943 19.364C7.3881 19.7112 7.4506 20.044 7.61367 20.3606L8.94717 19.6737C8.91191 19.6053 8.87524 19.4936 8.85434 19.2405C8.83269 18.9784 8.83209 18.6366 8.83209 18.12H7.33209ZM9.4132 20.1341C9.21127 20.0323 9.0486 19.8707 8.94717 19.6737L7.61367 20.3606C7.86115 20.8411 8.25523 21.2302 8.73808 21.4736L9.4132 20.1341ZM18.25 18.12C18.25 18.6366 18.2494 18.9784 18.2278 19.2405C18.2068 19.4936 18.1702 19.6053 18.1349 19.6737L19.4684 20.3606C19.6315 20.044 19.694 19.7112 19.7227 19.364C19.7506 19.0258 19.75 18.6115 19.75 18.12H18.25ZM16.0886 21.75C16.5859 21.75 17.0035 21.7506 17.3441 21.723C17.6933 21.6948 18.0268 21.6335 18.344 21.4736L17.6689 20.1341C17.5969 20.1704 17.481 20.2071 17.2233 20.2279C16.9571 20.2494 16.6104 20.25 16.0886 20.25V21.75ZM18.1349 19.6737C18.0335 19.8707 17.8708 20.0323 17.6689 20.1341L18.344 21.4736C18.8269 21.2302 19.2209 20.8411 19.4684 20.3606L18.1349 19.6737ZM16.0886 3.75C16.6104 3.75 16.9571 3.75057 17.2233 3.77209C17.481 3.79291 17.5969 3.82964 17.6689 3.86593L18.344 2.52645C18.0268 2.36655 17.6933 2.30518 17.3441 2.27696C17.0035 2.24943 16.5859 2.25 16.0886 2.25V3.75ZM19.75 5.88C19.75 5.38846 19.7506 4.97421 19.7227 4.63603C19.694 4.28884 19.6315 3.95597 19.4684 3.63938L18.1349 4.32625C18.1702 4.39471 18.2068 4.50638 18.2278 4.7595C18.2494 5.02162 18.25 5.36344 18.25 5.88H19.75ZM17.6689 3.86593C17.8708 3.96771 18.0335 4.12932 18.1349 4.32625L19.4684 3.63938C19.2209 3.15893 18.8269 2.76981 18.344 2.52645L17.6689 3.86593ZM8.83209 5.88C8.83209 5.36344 8.83269 5.02162 8.85434 4.7595C8.87524 4.50638 8.91191 4.39471 8.94717 4.32625L7.61367 3.63938C7.4506 3.95597 7.3881 4.28884 7.35943 4.63603C7.33149 4.97421 7.33209 5.38846 7.33209 5.88H8.83209ZM10.9935 2.25C10.4962 2.25 10.0786 2.24943 9.73797 2.27696C9.3888 2.30518 9.05532 2.36655 8.73807 2.52645L9.4132 3.86593C9.4852 3.82964 9.60112 3.79291 9.85881 3.77209C10.125 3.75057 10.4717 3.75 10.9935 3.75V2.25ZM8.94717 4.32625C9.0486 4.12932 9.21127 3.96771 9.4132 3.86593L8.73807 2.52645C8.25523 2.76981 7.86115 3.15893 7.61367 3.63938L8.94717 4.32625ZM3.53296 12.75L13.541 12.75V11.25L3.53296 11.25L3.53296 12.75ZM4.82517 8.7668L3.12504 10.4486L4.17993 11.515L5.88006 9.8332L4.82517 8.7668ZM3.12504 13.5514L4.82517 15.2332L5.88006 14.1668L4.17993 12.485L3.12504 13.5514ZM3.12504 10.4486C2.95371 10.618 2.79268 10.7765 2.66956 10.92C2.54085 11.07 2.40926 11.2526 2.33198 11.4878L3.75708 11.9559C3.7473 11.9857 3.73953 11.9765 3.80785 11.8969C3.88176 11.8107 3.99096 11.7019 4.17993 11.515L3.12504 10.4486ZM4.17993 12.485C3.99096 12.2981 3.88176 12.1893 3.80785 12.1031C3.73953 12.0235 3.7473 12.0143 3.75708 12.0441L2.33198 12.5122C2.40926 12.7474 2.54086 12.93 2.66956 13.08C2.79268 13.2235 2.95371 13.382 3.12504 13.5514L4.17993 12.485ZM2.33198 11.4878C2.22267 11.8206 2.22267 12.1794 2.33198 12.5122L3.75708 12.0441C3.74764 12.0153 3.74764 11.9847 3.75708 11.9559L2.33198 11.4878Z" fill="#BEC5CF"/>
</svg>
