<!-- w24 / h24 -->
<svg width="1em" height="1em" viewBox="0 0 24 24" fill="none" xmlns="http://www.w3.org/2000/svg">
    <path d="M21 12.4995H8.97892M4.73578 12.4995H3M4.73578 12.4995C4.73578 11.9403 4.95925 11.4039 5.35703 11.0085C5.75481 10.613 6.29432 10.3908 6.85687 10.3908C7.41941 10.3908 7.95892 10.613 8.3567 11.0085C8.75448 11.4039 8.97795 11.9403 8.97795 12.4995C8.97795 13.0588 8.75448 13.5951 8.3567 13.9906C7.95892 14.386 7.41941 14.6082 6.85687 14.6082C6.29432 14.6082 5.75481 14.386 5.35703 13.9906C4.95925 13.5951 4.73578 13.0588 4.73578 12.4995ZM21 18.8904H15.4074M15.4074 18.8904C15.4074 19.4497 15.1833 19.9867 14.7855 20.3822C14.3876 20.7778 13.848 21 13.2853 21C12.7228 21 12.1832 20.7769 11.7855 20.3814C11.3877 19.986 11.1642 19.4496 11.1642 18.8904M15.4074 18.8904C15.4074 18.331 15.1833 17.795 14.7855 17.3994C14.3876 17.0039 13.848 16.7817 13.2853 16.7817C12.7228 16.7817 12.1832 17.0038 11.7855 17.3993C11.3877 17.7947 11.1642 18.3311 11.1642 18.8904M11.1642 18.8904H3M21 6.10868H17.9789M13.7358 6.10868H3M13.7358 6.10868C13.7358 5.54942 13.9593 5.01307 14.357 4.61762C14.7548 4.22216 15.2943 4 15.8569 4C16.1354 4 16.4112 4.05454 16.6686 4.16051C16.9259 4.26648 17.1597 4.42181 17.3567 4.61762C17.5537 4.81343 17.7099 5.04588 17.8165 5.30172C17.9231 5.55756 17.9779 5.83176 17.9779 6.10868C17.9779 6.38559 17.9231 6.6598 17.8165 6.91563C17.7099 7.17147 17.5537 7.40393 17.3567 7.59974C17.1597 7.79555 16.9259 7.95087 16.6686 8.05684C16.4112 8.16281 16.1354 8.21735 15.8569 8.21735C15.2943 8.21735 14.7548 7.99519 14.357 7.59974C13.9593 7.20428 13.7358 6.66793 13.7358 6.10868Z" stroke="currentColor" stroke-width="1.5" stroke-linecap="round" stroke-linejoin="round"/>
</svg>
