<!-- w18 / h18 -->
<svg width="1em" height="1em" viewBox="0 0 18 18" fill="none" xmlns="http://www.w3.org/2000/svg">
    <path d="M6 10.062C3.77742 10.5529 2.25 11.5723 2.25 12.7502C2.25 14.407 5.27208 15.7502 9 15.7502C12.7279 15.7502 15.75 14.407 15.75 12.7502C15.75 11.5723 14.2226 10.5529 12 10.062M9 12.75V7.25M9 7.25V2.45833C9 2.34327 9.09594 2.25 9.21429 2.25H14.1847C14.505 2.25 14.6779 2.62579 14.4694 2.86905L13.0663 4.50595C12.946 4.64639 12.946 4.85361 13.0663 4.99405L14.4694 6.63095C14.6779 6.87421 14.505 7.25 14.1847 7.25H9Z" stroke="currentColor" stroke-width="1.5" stroke-linecap="round"/>
</svg>
