<!-- w24 / h24 -->
<svg width="1em" height="1em" viewBox="0 0 24 24" fill="none" xmlns="http://www.w3.org/2000/svg">
    <path d="M12.951 17.3589L18.141 18.6629C18.5097 18.7555 18.8947 18.7628 19.2667 18.6843C19.6387 18.6057 19.9878 18.4433 20.2876 18.2095C20.5873 17.9757 20.8298 17.6766 20.9966 17.3349C21.1634 16.9933 21.25 16.6181 21.25 16.2379V7.39094C21.25 7.01076 21.1634 6.63558 20.9966 6.29393C20.8298 5.95229 20.5873 5.65318 20.2876 5.41936C19.9878 5.18554 19.6387 5.02317 19.2667 4.9446C18.8947 4.86603 18.5097 4.87332 18.141 4.96594L4.641 8.35594C4.10083 8.49161 3.62143 8.80377 3.27885 9.2429C2.93628 9.68204 2.75015 10.223 2.75 10.7799V12.8479C2.74999 13.4052 2.93616 13.9465 3.27894 14.3858C3.62173 14.8252 4.10148 15.1374 4.642 15.2729L7.142 15.8999L12.952 17.3599M7.141 15.9009C7.01801 16.291 6.97606 16.702 7.01774 17.1089C7.05942 17.5157 7.18383 17.9097 7.38335 18.2667C7.58286 18.6237 7.85326 18.9361 8.17793 19.1848C8.5026 19.4335 8.87469 19.6132 9.27133 19.7128C9.66798 19.8124 10.0808 19.8299 10.4844 19.7641C10.8881 19.6984 11.274 19.5508 11.6185 19.3304C11.9631 19.1101 12.2589 18.8216 12.4879 18.4827C12.7168 18.1439 12.8741 17.7618 12.95 17.3599" stroke="currentColor" stroke-width="1.5"/>
</svg>
