<!-- w24 / h24 -->
<svg width="1em" height="1em" viewBox="0 0 24 24" fill="none" xmlns="http://www.w3.org/2000/svg">
    <path d="M12.2967 4.00711H12.6372C11.5241 5.06818 10.8086 6.49586 10.6151 8.04197C10.4216 9.58809 10.7623 11.1549 11.5781 12.47C12.3939 13.7851 13.6332 14.7654 15.0805 15.2404C16.5277 15.7155 18.0915 15.6552 19.5 15.0702C18.9582 16.4075 18.0727 17.5689 16.9379 18.4305C15.8031 19.292 14.4616 19.8214 13.0566 19.9621C11.6515 20.1029 10.2355 19.8497 8.95968 19.2297C7.68386 18.6096 6.59604 17.646 5.81226 16.4414C5.02848 15.2369 4.57814 13.8367 4.50928 12.3902C4.44043 10.9437 4.75563 9.50515 5.42127 8.22801C6.08692 6.95087 7.07803 5.88304 8.28889 5.13843C9.49975 4.39382 10.8849 4.00035 12.2967 4V4.00711Z" stroke="currentColor" stroke-width="1.5" stroke-linecap="round" stroke-linejoin="round"/>
</svg>
