<!-- w19 / h18 -->
<svg width="1.055em" height="1em" viewBox="0 0 19 18" fill="none" xmlns="http://www.w3.org/2000/svg">
    <path d="M8.19531 4.25H9.69531M6.84531 15.4H11.0453C11.8854 15.4 12.3054 15.4 12.6263 15.2365C12.9085 15.0927 13.138 14.8632 13.2818 14.581C13.4453 14.2601 13.4453 13.8401 13.4453 13V4.4C13.4453 3.55992 13.4453 3.13988 13.2818 2.81901C13.138 2.53677 12.9085 2.3073 12.6263 2.16349C12.3054 2 11.8854 2 11.0453 2H6.84531C6.00523 2 5.58519 2 5.26433 2.16349C4.98208 2.3073 4.75261 2.53677 4.6088 2.81901C4.44531 3.13988 4.44531 3.55992 4.44531 4.4V13C4.44531 13.8401 4.44531 14.2601 4.6088 14.581C4.75261 14.8632 4.98208 15.0927 5.26433 15.2365C5.58519 15.4 6.00523 15.4 6.84531 15.4Z" stroke="currentColor" stroke-opacity="0.3" stroke-width="1.5" stroke-linecap="round"/>
</svg>
