<!-- w38 / h38 -->
<svg width="1em" height="1em" viewBox="0 0 38 38" fill="none" xmlns="http://www.w3.org/2000/svg">
    <path d="M25 24.5V21H28.5" stroke="currentColor" stroke-width="1.5" stroke-linecap="round" stroke-linejoin="round"/>
    <path d="M25 28.5H21V25.5" stroke="currentColor" stroke-width="1.5" stroke-linecap="round" stroke-linejoin="round"/>
    <path d="M28 25V28.5" stroke="currentColor" stroke-width="1.5" stroke-linecap="round" stroke-linejoin="round"/>
    <path d="M9.5 23C9.5 21.8954 10.3954 21 11.5 21H15C16.1046 21 17 21.8954 17 23V26.5C17 27.6046 16.1046 28.5 15 28.5H11.5C10.3954 28.5 9.5 27.6046 9.5 26.5V23Z" stroke="currentColor" stroke-width="1.5"/>
    <path d="M9.5 11.5C9.5 10.3954 10.3954 9.5 11.5 9.5H15C16.1046 9.5 17 10.3954 17 11.5V15C17 16.1046 16.1046 17 15 17H11.5C10.3954 17 9.5 16.1046 9.5 15V11.5Z" stroke="currentColor" stroke-width="1.5"/>
    <path d="M21 11.5C21 10.3954 21.8954 9.5 23 9.5H26.5C27.6046 9.5 28.5 10.3954 28.5 11.5V15C28.5 16.1046 27.6046 17 26.5 17H23C21.8954 17 21 16.1046 21 15V11.5Z" stroke="currentColor" stroke-width="1.5"/>
    <path d="M5.90595 35.5546L5.56546 36.2229L5.90595 35.5546ZM2.44624 32.0949L3.11449 31.7544H3.11449L2.44624 32.0949ZM35.5538 32.0949L34.8856 31.7544L35.5538 32.0949ZM32.0941 35.5546L31.7536 34.8864L32.0941 35.5546ZM32.0941 2.44704L31.7536 3.1153L32.0941 2.44704ZM35.5538 5.90675L36.2221 5.56626L35.5538 5.90675ZM5.90595 2.44704L6.24644 3.1153L5.90595 2.44704ZM2.44624 5.90675L3.11449 6.24725L2.44624 5.90675ZM12.6694 2.33593C13.0836 2.33446 13.4182 1.99748 13.4167 1.58327C13.4152 1.16906 13.0782 0.834468 12.664 0.835942L12.6694 2.33593ZM25.336 0.835942C24.9218 0.834468 24.5849 1.16906 24.5834 1.58327C24.5819 1.99748 24.9165 2.33446 25.3307 2.33593L25.336 0.835942ZM2.33471 25.2033C2.3335 24.789 1.99672 24.4542 1.58251 24.4555C1.1683 24.4567 0.833503 24.7934 0.83472 25.2077L2.33471 25.2033ZM37.1654 25.2077C37.1666 24.7934 36.8318 24.4567 36.4176 24.4555C36.0034 24.4542 35.6666 24.789 35.6654 25.2033L37.1654 25.2077ZM35.6649 12.6702C35.6664 13.0844 36.0034 13.419 36.4176 13.4175C36.8318 13.416 37.1664 13.0791 37.1649 12.6648L35.6649 12.6702ZM12.664 37.1657C13.0782 37.1672 13.4152 36.8326 13.4167 36.4184C13.4182 36.0042 13.0836 35.6672 12.6694 35.6658L12.664 37.1657ZM25.3309 35.6658C24.9167 35.6672 24.5821 36.0042 24.5836 36.4184C24.5851 36.8326 24.922 37.1672 25.3362 37.1657L25.3309 35.6658ZM0.835139 12.6648C0.833665 13.0791 1.16825 13.416 1.58246 13.4175C1.99668 13.419 2.33366 13.0844 2.33513 12.6702L0.835139 12.6648ZM6.24644 34.8864C4.89795 34.1993 3.80159 33.1029 3.11449 31.7544L1.77798 32.4354C2.60889 34.0662 3.93472 35.392 5.56546 36.2229L6.24644 34.8864ZM34.8856 31.7544C34.1985 33.1029 33.1021 34.1993 31.7536 34.8864L32.4346 36.2229C34.0654 35.392 35.3912 34.0662 36.2221 32.4354L34.8856 31.7544ZM31.7536 3.1153C33.1021 3.80239 34.1985 4.89875 34.8856 6.24725L36.2221 5.56626C35.3912 3.93552 34.0654 2.60969 32.4346 1.77879L31.7536 3.1153ZM5.56546 1.77879C3.93472 2.60969 2.60889 3.93552 1.77798 5.56626L3.11449 6.24725C3.80159 4.89875 4.89795 3.80239 6.24644 3.1153L5.56546 1.77879ZM12.664 0.835942C9.30743 0.84789 7.2339 0.928672 5.56546 1.77879L6.24644 3.1153C7.53541 2.45854 9.21743 2.34822 12.6694 2.33593L12.664 0.835942ZM25.3307 2.33593C28.7827 2.34822 30.4647 2.45854 31.7536 3.1153L32.4346 1.77879C30.7662 0.928672 28.6927 0.84789 25.336 0.835942L25.3307 2.33593ZM0.83472 25.2077C0.844813 28.6423 0.917818 30.7473 1.77798 32.4354L3.11449 31.7544C2.4489 30.4481 2.34511 28.7404 2.33471 25.2033L0.83472 25.2077ZM35.6654 25.2033C35.655 28.7404 35.5512 30.4481 34.8856 31.7544L36.2221 32.4354C37.0823 30.7473 37.1553 28.6423 37.1654 25.2077L35.6654 25.2033ZM37.1649 12.6648C37.153 9.30823 37.0722 7.23471 36.2221 5.56626L34.8856 6.24724C35.5423 7.53621 35.6527 9.21823 35.6649 12.6702L37.1649 12.6648ZM12.6694 35.6658C9.21743 35.6535 7.53541 35.5431 6.24644 34.8864L5.56546 36.2229C7.2339 37.073 9.30743 37.1538 12.664 37.1657L12.6694 35.6658ZM25.3362 37.1657C28.6927 37.1538 30.7662 37.073 32.4346 36.2229L31.7536 34.8864C30.4647 35.5431 28.7827 35.6535 25.3309 35.6658L25.3362 37.1657ZM2.33513 12.6702C2.34742 9.21823 2.45773 7.53621 3.11449 6.24725L1.77798 5.56626C0.927869 7.23471 0.847087 9.30823 0.835139 12.6648L2.33513 12.6702Z" fill="currentColor"/>
</svg>
