<!-- w24 / h24 -->
<svg width="1em" height="1em" viewBox="0 0 24 24" fill="none" xmlns="http://www.w3.org/2000/svg">
    <path d="M14.3124 14.3125H14.6874M14.3124 14.6875H14.6874M14.3124 20.3125H14.6874M14.3124 20.6875H14.6874M17.3124 17.3125H17.6874M17.3124 17.6875H17.6874M20.3124 14.3125H20.6874M20.3124 14.6875H20.6874M20.3124 20.3125H20.6874M20.3124 20.6875H20.6874M5 10H8C9.10457 10 10 9.10457 10 8V5C10 3.89543 9.10457 3 8 3H5C3.89543 3 3 3.89543 3 5V8C3 9.10457 3.89543 10 5 10ZM5 21H8C9.10457 21 10 20.1046 10 19V16C10 14.8954 9.10457 14 8 14H5C3.89543 14 3 14.8954 3 16V19C3 20.1046 3.89543 21 5 21ZM16 10H19C20.1046 10 21 9.10457 21 8V5C21 3.89543 20.1046 3 19 3H16C14.8954 3 14 3.89543 14 5V8C14 9.10457 14.8954 10 16 10ZM15 14.5C15 14.7761 14.7761 15 14.5 15C14.2239 15 14 14.7761 14 14.5C14 14.2239 14.2239 14 14.5 14C14.7761 14 15 14.2239 15 14.5ZM15 20.5C15 20.7761 14.7761 21 14.5 21C14.2239 21 14 20.7761 14 20.5C14 20.2239 14.2239 20 14.5 20C14.7761 20 15 20.2239 15 20.5ZM18 17.5C18 17.7761 17.7761 18 17.5 18C17.2239 18 17 17.7761 17 17.5C17 17.2239 17.2239 17 17.5 17C17.7761 17 18 17.2239 18 17.5ZM21 14.5C21 14.7761 20.7761 15 20.5 15C20.2239 15 20 14.7761 20 14.5C20 14.2239 20.2239 14 20.5 14C20.7761 14 21 14.2239 21 14.5ZM21 20.5C21 20.7761 20.7761 21 20.5 21C20.2239 21 20 20.7761 20 20.5C20 20.2239 20.2239 20 20.5 20C20.7761 20 21 20.2239 21 20.5Z" stroke="currentColor" stroke-width="1.5" stroke-linecap="round"/>
</svg>
