<!-- w24 / h24 -->
<svg width="1em" height="1em" viewBox="0 0 24 24" fill="none" xmlns="http://www.w3.org/2000/svg">
    <path d="M19.875 22.5C21.3247 22.5 22.5 21.3247 22.5 19.875C22.5 18.4253 21.3247 17.25 19.875 17.25C18.4253 17.25 17.25 18.4253 17.25 19.875C17.25 21.3247 18.4253 22.5 19.875 22.5Z" stroke="currentColor" stroke-width="1.5" stroke-linecap="round" stroke-linejoin="round"/>
    <path d="M5.875 4.125H16.375C17.3033 4.125 18.1935 4.49375 18.8499 5.15013C19.5063 5.8065 19.875 6.69674 19.875 7.625C19.875 8.55326 19.5063 9.4435 18.8499 10.0999C18.1935 10.7563 17.3033 11.125 16.375 11.125H5.875C4.71468 11.125 3.60188 11.5859 2.78141 12.4064C1.96094 13.2269 1.5 14.3397 1.5 15.5C1.5 16.6603 1.96094 17.7731 2.78141 18.5936C3.60188 19.4141 4.71468 19.875 5.875 19.875H17.25" stroke="currentColor" stroke-width="1.5" stroke-linecap="round" stroke-linejoin="round"/>
</svg>
