<!-- w18 / h18 -->
<svg width="1em" height="1em" viewBox="0 0 18 18" fill="none" xmlns="http://www.w3.org/2000/svg">
<path d="M2.58026 9.76522C2.39717 9.60829 2.30562 9.52982 2.27208 9.43644C2.24264 9.35449 2.24264 9.26484 2.27208 9.18289C2.30562 9.08952 2.39717 9.01105 2.58026 8.85411L8.9333 3.40865C9.24848 3.1385 9.40606 3.00342 9.53948 3.00012C9.65543 2.99724 9.76619 3.04818 9.83946 3.13809C9.92378 3.24154 9.92378 3.44909 9.92378 3.8642V7.08564C11.5248 7.36573 12.9901 8.17698 14.079 9.39507C15.2662 10.7231 15.9229 12.4416 15.9238 14.2229V14.6819C15.1368 13.7338 14.1541 12.9671 13.0432 12.4341C12.0638 11.9642 11.005 11.6859 9.92378 11.6126V14.7551C9.92378 15.1702 9.92378 15.3778 9.83946 15.4812C9.76619 15.5712 9.65543 15.6221 9.53948 15.6192C9.40606 15.6159 9.24848 15.4808 8.9333 15.2107L2.58026 9.76522Z" stroke="currentColor" stroke-width="1.5" stroke-linecap="round" stroke-linejoin="round"/>
</svg>
