<!-- w18 / h18 -->
<svg width="1em" height="1em" viewBox="0 0 18 18" fill="none" xmlns="http://www.w3.org/2000/svg">
    <path d="M8.37228 1.27189C8.62905 0.751618 9.37095 0.751618 9.62772 1.27189L11.7761 5.62491C11.878 5.83151 12.0751 5.9747 12.3031 6.00783L17.107 6.70587C17.6811 6.7893 17.9104 7.49488 17.4949 7.89986L14.0188 11.2882C13.8538 11.449 13.7785 11.6807 13.8175 11.9078L14.6381 16.6922C14.7362 17.2641 14.136 17.7001 13.6224 17.4302L9.32574 15.1713C9.12181 15.064 8.87819 15.064 8.67426 15.1713L4.37758 17.4302C3.86404 17.7001 3.26384 17.2641 3.36191 16.6922L4.18251 11.9078C4.22145 11.6807 4.14617 11.449 3.98119 11.2882L0.5051 7.89986C0.0896378 7.49488 0.318895 6.7893 0.893049 6.70587L5.69689 6.00783C5.92488 5.9747 6.12198 5.83151 6.22394 5.62491L8.37228 1.27189Z" fill="currentColor"/>
</svg>
