<!-- w18 / h18 -->
<svg width="1em" height="1em" viewBox="0 0 18 18" fill="none" xmlns="http://www.w3.org/2000/svg">
    <path d="M13.5 16.4995L13.9869 11.6303C14.1373 10.1267 13.1458 8.74597 11.6731 8.40785L9.75 7.96636V5.2812C9.75 4.44975 9.0737 3.77693 8.24226 3.78122C7.41686 3.78548 6.75 4.4558 6.75 5.2812V10.4995L6.39357 10.143C5.80196 9.55141 4.81701 9.64894 4.35291 10.3451C4.00234 10.8709 4.07168 11.5711 4.51857 12.018L5.3454 12.8448C5.77374 13.2732 6.07761 13.8099 6.22453 14.3976L6.75 16.4995H13.5Z" stroke="currentColor" stroke-opacity="0.5" stroke-width="1.5" stroke-linecap="round" stroke-linejoin="round"/>
    <path d="M12.75 5.25C12.75 2.76472 10.7353 0.75 8.25 0.75C5.76472 0.75 3.75 2.76472 3.75 5.25C3.75 6.06965 3.96914 6.83811 4.35202 7.5" stroke="#161D25" stroke-opacity="0.5" stroke-width="1.5" stroke-linecap="round"/>
</svg>
