<!-- w18 / h18 -->
<svg width="1em" height="1em" viewBox="0 0 18 18" fill="none" xmlns="http://www.w3.org/2000/svg">
  <path d="M9 5.18182V8.99968M9 8.99968L11.5455 10.9091M9 8.99968C9 8.99988 8.99984 8.99956 9 8.99968ZM2.18158 10.5909C2.0628 10.0798 2 9.54724 2 9C2 8.45276 2.0628 7.92019 2.18158 7.40909M7.72727 2.11542C8.13999 2.03961 8.56537 2 9 2C12.866 2 16 5.13401 16 9C16 12.866 12.866 16 9 16C8.56537 16 8.13999 15.9604 7.72727 15.8846M5.5 2.93648C4.54522 3.48879 3.733 4.26014 3.13205 5.18182M3.13205 12.8182C3.733 13.7399 4.54522 14.5112 5.5 15.0635" stroke="currentColor" stroke-width="1.5" stroke-linecap="round"/>
</svg>
