<svg width="206" height="206" viewBox="0 0 206 206" fill="none" xmlns="http://www.w3.org/2000/svg">
<g style="mix-blend-mode:soft-light">
<path d="M3.62875 118L4.15519 121.446L2.27651 121.735L0.893311 112.665L2.77199 112.376L3.29843 115.823L14.2815 114.151L14.6118 116.318L3.62875 117.99V118Z" fill="white"/>
<path d="M13.5898 108.672L0.583586 109.044L0.449395 104.287C0.377138 101.893 1.67776 100.5 3.85579 100.428C5.17706 100.387 6.01317 100.995 6.44671 101.883C6.74606 100.645 7.87121 99.5714 9.54344 99.5302C11.7937 99.4683 13.373 100.872 13.4453 103.234L13.6001 108.682L13.5898 108.672ZM2.34872 104.38L2.42097 106.794L5.87898 106.691L5.80672 104.277C5.77576 103.296 5.17706 102.626 4.03127 102.657C2.87516 102.688 2.31775 103.389 2.34872 104.38ZM7.60282 103.575L7.69572 106.639L11.6389 106.526L11.546 103.461C11.515 102.419 10.7305 101.718 9.52279 101.749C8.29442 101.78 7.57186 102.533 7.60282 103.575Z" fill="white"/>
<path d="M8.45963 83.3823C12.2273 83.8363 14.7769 87.1794 14.3124 91.0694C13.8376 94.9594 10.5654 97.6009 6.79773 97.1469C3.03005 96.6929 0.480413 93.3497 0.944921 89.4494C1.41975 85.5595 4.69195 82.918 8.45963 83.372V83.3823ZM8.19125 85.5904C5.4971 85.2602 3.17456 87.0762 2.86489 89.6868C2.55522 92.2973 4.37196 94.6086 7.06611 94.9285C9.76026 95.2586 12.0828 93.4426 12.3925 90.8321C12.7125 88.2319 10.8957 85.9103 8.19125 85.5904Z" fill="white"/>
<path d="M0.0469591 75.4989C0.22244 74.8385 0.893397 74.4567 1.55403 74.6425C2.21466 74.8282 2.59659 75.4886 2.41079 76.1489C2.22499 76.8093 1.56435 77.1911 0.903719 77.0054C0.243085 76.8196 -0.138844 76.1593 0.0469591 75.4989ZM0.945009 72.197C1.13081 71.5367 1.79145 71.1549 2.45208 71.3406C3.11271 71.516 3.49464 72.1867 3.30884 72.8471C3.12304 73.5075 2.4624 73.8892 1.80177 73.7035C1.14113 73.5178 0.759205 72.8574 0.945009 72.197ZM2.99917 78.646L5.07397 71.0104L6.90104 71.5057L5.39397 77.026L8.89326 77.9753L10.2765 72.8884L12.1035 73.3836L10.7203 78.4705L14.2919 79.4405L15.8402 73.7654L17.6673 74.2607L15.5409 82.051L2.98885 78.6356L2.99917 78.646Z" fill="white"/>
<path d="M19.5975 59.5985L13.0737 60.3208L21.4246 64.6751L20.4439 66.553L8.91382 60.5375L9.86348 58.7214L17.7808 57.865L13.9615 50.8899L14.9111 49.0739L26.4413 55.0894L25.4606 56.9673L17.1098 52.613L20.2478 58.3809L19.6078 59.5985H19.5975Z" fill="white"/>
<path d="M17.6052 45.1013L22.2606 38.704L23.7987 39.8184L20.4336 44.4409L23.3651 46.5665L26.4722 42.3051L28.0102 43.4194L24.9032 47.6809L27.8967 49.858L31.365 45.1013L32.8927 46.2157L28.1341 52.7471L17.6155 45.1013H17.6052Z" fill="white"/>
<path d="M40.8308 35.5879C40.7173 37.1459 40.0566 38.673 38.8592 39.9318C36.1651 42.7797 31.9535 42.9345 29.2078 40.3343C26.4517 37.7237 26.4001 33.5242 29.0942 30.6764C30.2503 29.4588 31.6335 28.7572 33.1509 28.5095L33.5948 30.439C32.418 30.7073 31.4064 31.0478 30.4981 32.0074C28.6916 33.906 28.7742 36.8467 30.7458 38.7143C32.7174 40.5819 35.6593 40.4994 37.4554 38.6008C38.3225 37.6825 38.756 36.4546 38.8489 35.2886L40.8308 35.5775V35.5879Z" fill="white"/>
<path d="M38.2708 25.0735L35.5663 27.2816L34.3689 25.8164L41.481 20.0176L42.6784 21.4828L39.974 23.6909L47.0035 32.2963L45.3003 33.679L38.2708 25.0735Z" fill="white"/>
<path d="M58.9259 16.6538C60.8872 19.8937 59.824 23.9695 56.4692 25.9918C53.1144 28.0142 49.0164 27.0649 47.0551 23.8147C45.0939 20.5748 46.1571 16.499 49.5119 14.4767C52.8667 12.4543 56.9647 13.4036 58.9259 16.6538ZM57.0163 17.8095C55.6124 15.4878 52.7531 14.7862 50.5131 16.1379C48.2732 17.4896 47.5609 20.3477 48.9648 22.6694C50.3686 24.991 53.2279 25.6926 55.4679 24.3409C57.7079 22.9892 58.4201 20.1311 57.0163 17.8095Z" fill="white"/>
<path d="M78.6418 16.076L76.567 16.7673L73.047 6.24269L68.0819 7.90393L71.6019 18.4286L69.5271 19.1199L65.4084 6.79987L74.5335 3.74567L78.6624 16.0657L78.6418 16.076Z" fill="white"/>
<path d="M93.2892 6.70701C93.9085 10.4422 91.4208 13.8369 87.5602 14.4767C83.6893 15.1164 80.2416 12.7226 79.612 8.97703C78.9926 5.24182 81.4803 1.8471 85.3409 1.20737C89.2118 0.567639 92.6595 2.96148 93.2892 6.70701ZM91.0905 7.07847C90.6466 4.40604 88.2518 2.6932 85.6609 3.12657C83.0803 3.55994 81.3668 5.95378 81.8106 8.62621C82.2545 11.2986 84.6493 13.0115 87.2402 12.5781C89.8208 12.1447 91.5343 9.7509 91.0905 7.07847Z" fill="white"/>
<path d="M106.337 15.5807L104.148 15.622L104.107 13.0218L97.253 13.1353L97.2943 15.7355L95.1059 15.7768L95.0337 11.278L96.0143 11.2574C97.1911 8.40951 97.5214 4.86003 97.4698 1.60977L97.4491 0.123941L104.974 0.00012207L105.16 11.1129L106.275 11.0923L106.347 15.591L106.337 15.5807ZM102.951 11.1335L102.796 1.91932L99.6168 1.97091C99.6685 5.07671 99.2246 8.59524 98.3059 11.2058L102.951 11.1232V11.1335Z" fill="white"/>
<path d="M124.772 14.3734C123.4 15.1164 121.758 15.395 120.045 15.0648C116.184 14.3322 113.779 10.8859 114.481 7.16097C115.193 3.43608 118.693 1.11446 122.553 1.83674C124.194 2.14629 125.547 2.93048 126.579 4.07581L125.196 5.49973C124.339 4.65363 123.493 3.98294 122.202 3.73531C119.622 3.25035 117.196 4.90127 116.69 7.5737C116.184 10.2358 117.846 12.6709 120.416 13.1662C121.655 13.4035 122.925 13.094 123.957 12.5471L124.783 14.3734H124.772Z" fill="white"/>
<path d="M141.041 14.5282C139.75 18.0984 135.931 19.8318 132.236 18.5008C128.55 17.1697 126.713 13.3932 127.993 9.82312C129.283 6.25299 133.103 4.51953 136.798 5.85058C140.483 7.18164 142.321 10.9581 141.041 14.5282ZM138.945 13.7647C139.864 11.2161 138.615 8.55397 136.148 7.6666C133.681 6.77923 131.018 8.02774 130.099 10.5867C129.18 13.1353 130.429 15.7974 132.896 16.6848C135.363 17.5721 138.026 16.3236 138.945 13.7647Z" fill="white"/>
<path d="M149.34 26.4149L147.42 25.3624L152.767 15.622L148.339 13.1869L144.581 20.0279C143.415 22.1431 142.063 22.4527 140.122 21.3899C139.895 21.2661 139.627 21.101 139.492 20.9978L140.39 19.3675L140.845 19.6151C141.609 20.0382 142.135 19.9247 142.661 18.9651L147.327 10.4628L155.595 15.0029L149.33 26.3942L149.34 26.4149Z" fill="white"/>
<path d="M159.621 17.634L161.365 18.9548L158.031 23.3504L162.594 26.807L165.928 22.4114L167.672 23.7321L159.827 34.0917L158.083 32.7709L161.458 28.3134L156.896 24.8568L153.52 29.3143L151.776 27.9936L159.621 17.634Z" fill="white"/>
<path d="M162.006 36.0315L171.265 26.9102L172.803 28.4682L164.885 36.2688L168.56 39.9937L176.467 32.1931L178.005 33.7512L170.088 41.5518L170.872 42.3463L167.673 45.5037L166.134 43.9456L167.982 42.1193L161.985 36.0315H162.006Z" fill="white"/>
<path d="M181.133 37.4451L185.912 43.7496L184.405 44.8949L180.947 40.3342L178.057 42.5217L181.246 46.7213L179.739 47.8666L176.56 43.6671L173.618 45.8958L177.169 50.5906L175.662 51.7359L170.78 45.2973L181.143 37.4451H181.133Z" fill="white"/>
<path d="M183.362 56.8744L186.397 51.0549L178.129 55.5537L177.117 53.6964L188.544 47.4848L189.525 49.2802L185.83 56.3276L193.757 57.0498L194.738 58.8452L183.311 65.0568L182.299 63.1995L190.568 58.7008L184.033 58.092L183.373 56.8847L183.362 56.8744Z" fill="white"/>
</g>
<path d="M43.339 178.382C42.2552 179.961 42.3481 180.56 43.3081 181.21L44.0616 181.726L51.0602 171.51L54.8485 174.1C55.5195 174.565 55.6433 175.06 55.282 175.576L48.8409 184.986L50.895 186.389L57.8936 176.174L61.6819 178.764C62.3529 179.228 62.4768 179.724 62.1155 180.24L53.1866 193.282L39.4371 183.882C36.2475 181.695 35.814 179.156 38.1056 175.813L44.1029 167.053C45.1971 167.455 46.3945 168.044 47.8706 169.055C48.6963 169.622 48.8925 170.283 48.428 170.964L43.3493 178.382H43.339Z" fill="white"/>
<path d="M63.7568 188.917C65.4703 183.923 70.2806 181.818 74.9773 183.428C79.3746 184.935 81.1501 188.401 79.932 191.941C79.612 192.859 79.0753 193.767 78.3527 194.417C77.5785 195.119 76.8043 195.15 75.4108 194.665L68.8045 192.405C68.5877 194.386 69.7438 195.851 71.8289 196.563C73.2225 197.038 74.6986 197.213 75.7308 197.007C75.9063 197.667 75.9373 198.74 75.7308 199.329C75.4108 200.247 72.7063 201.175 69.2277 199.989C64.2936 198.297 62.1568 193.571 63.7568 188.907V188.917ZM69.7438 189.382L74.265 190.929C74.5024 190.713 74.7399 190.331 74.8947 189.877C75.3179 188.659 74.8121 187.69 73.7489 187.318C72.087 186.751 70.6006 187.566 69.7541 189.371L69.7438 189.382Z" fill="white"/>
<path d="M89.1498 197.657C88.4582 197.574 88.1898 197.203 88.293 196.264C88.3859 195.48 88.6233 194.5 88.9227 193.839L89.9859 193.963C91.6684 194.159 92.5562 193.622 92.6697 192.653C92.7316 192.095 92.3394 191.383 91.2142 191.249C89.9962 191.115 89.2323 191.714 88.7678 192.745C87.5911 192.549 86.435 192.137 85.5989 191.435C85.1343 191.064 84.9279 190.661 84.9795 190.197C85.0208 189.825 85.2169 189.495 85.475 189.175C86.7963 187.617 89.4285 186.936 92.4013 187.277C96.3961 187.731 98.7496 190.114 98.4503 192.745C98.2541 194.458 97.1393 195.665 95.498 196.202C97.1806 196.997 98.2438 198.441 98.0374 200.257C97.6864 203.322 94.6619 205.189 90.3162 204.694C86.4143 204.25 83.8234 202.249 83.9679 201C84.0402 200.371 84.5253 199.421 84.9692 198.895C86.2388 199.731 87.7253 200.288 89.284 200.463C91.3175 200.69 92.2155 200.257 92.3187 199.359C92.422 198.42 91.5033 197.936 89.6246 197.719L89.1601 197.667L89.1498 197.657Z" fill="white"/>
<path d="M119.498 186.802C120.313 186.709 120.726 187.008 120.798 187.638L122.584 203.342L118.022 203.858C117.206 203.951 116.793 203.652 116.721 203.022L115.431 191.693L112.427 192.033C112.592 194.035 112.747 196.491 112.685 198.451C112.582 202.795 111.188 205.014 107.906 205.385C105.655 205.643 103.612 204.642 103.477 203.487C103.385 202.672 103.622 201.671 103.932 201.062C104.365 201.237 104.912 201.299 105.47 201.237C106.595 201.114 107.111 200.381 107.101 197.822C107.08 194.819 106.812 191.373 106.492 188.278L119.487 186.802H119.498Z" fill="white"/>
<path d="M144.282 187.235C146.274 192.467 143.477 196.935 139.131 198.586C134.785 200.247 129.717 198.782 127.714 193.55C125.712 188.319 128.519 183.851 132.865 182.2C137.211 180.539 142.279 182.004 144.282 187.235ZM138.935 189.444C137.923 186.802 136.179 185.657 134.321 186.358C132.648 186.998 132.06 188.732 133.061 191.342C134.073 193.984 135.817 195.129 137.675 194.427C139.348 193.788 139.936 192.054 138.935 189.444Z" fill="white"/>
<path d="M159.218 187.844L155.44 190.455C154.77 190.919 154.264 190.847 153.902 190.331L145.056 177.526C145.83 176.649 146.811 175.741 148.277 174.73C149.103 174.162 149.794 174.214 150.259 174.885L153.025 178.898L156.153 176.742L152.798 171.882L156.576 169.271C157.247 168.807 157.753 168.879 158.114 169.395L167.094 182.407L163.316 185.017C162.646 185.481 162.14 185.409 161.778 184.893L158.651 180.364L155.523 182.52L159.198 187.844H159.218Z" fill="white"/>
<path d="M177.396 172.491L174.248 175.823C173.69 176.422 173.174 176.453 172.72 176.02L161.221 165.165L169.138 156.776C169.572 156.322 170.078 156.322 170.676 156.889L173.009 159.087L168.395 163.978L177.406 172.48L177.396 172.491Z" fill="white"/>
<path d="M178.831 158.344C174.33 155.579 173.339 150.42 175.941 146.189C178.377 142.227 182.155 141.268 185.334 143.228C186.16 143.744 186.934 144.466 187.409 145.312C187.925 146.22 187.78 146.984 187.006 148.243L183.342 154.186C185.231 154.836 186.913 154.021 188.069 152.153C188.844 150.895 189.339 149.502 189.36 148.439C190.041 148.418 191.094 148.624 191.631 148.955C192.456 149.471 192.776 152.318 190.846 155.445C188.111 159.892 183.032 160.934 178.831 158.344ZM180.596 152.597L183.104 148.532C182.95 148.253 182.619 147.933 182.217 147.696C181.122 147.015 180.059 147.293 179.471 148.253C178.552 149.749 179.027 151.379 180.596 152.597Z" fill="white"/>
<path d="M206.01 138.1L204.596 142.465C204.338 143.238 203.894 143.496 203.295 143.3L182.134 136.428C182.217 135.262 182.444 133.952 182.991 132.249C183.3 131.29 183.889 130.918 184.663 131.176L185.623 131.486C184.446 129.918 184.137 128.225 184.735 126.378C185.933 122.674 189.845 120.806 194.511 122.313C200.219 124.17 202.376 128.824 201.158 132.559C200.642 134.148 199.713 135.159 198.588 135.685L205.999 138.09L206.01 138.1ZM195.13 134.571C195.739 134.21 196.183 133.663 196.462 132.817C197.112 130.815 195.605 128.741 192.849 127.844C190.454 127.07 188.978 127.544 188.431 129.247C188.049 130.413 188.534 131.785 189.783 132.827L195.13 134.561V134.571Z" fill="white"/>
<path d="M179.626 101.8C179.626 102.853 179.605 103.905 179.554 104.947C177.912 146.231 143.91 179.187 102.208 179.187C75.5347 179.187 52.01 165.701 38.0954 145.178C30.0233 133.281 25.1717 119.011 24.8104 103.647C24.8001 103.028 24.7898 102.419 24.7898 101.8C24.7898 59.0619 59.4524 24.4131 102.208 24.4131C138.79 24.4131 169.448 49.7755 177.53 83.867C178.903 89.6246 179.626 95.6299 179.626 101.8Z" fill="url(#paint0_radial_8_3623)"/>
<path d="M57.0164 57.9785C56.9854 58.061 56.9647 58.1332 56.9441 58.2158L56.7583 58.4325C56.8409 58.2777 56.9235 58.1229 57.0164 57.9785Z" fill="#88C923"/>
<path d="M93.5877 105.653C103.178 96.0663 103.178 80.5238 93.5877 70.9376C83.9976 61.3513 68.4489 61.3513 58.8588 70.9376C49.2687 80.5238 49.2687 96.0662 58.8588 105.653C68.4489 115.239 83.9976 115.239 93.5877 105.653Z" fill="#FFD64F"/>
<path d="M179.626 101.8C179.626 144.538 144.963 179.187 102.208 179.187C59.4526 179.187 25.7912 145.529 24.8105 103.647C117.124 113.965 102.58 77.8515 177.531 83.867C178.903 89.6246 179.626 95.6298 179.626 101.8Z" fill="url(#paint1_linear_8_3623)"/>
<path d="M179.554 104.947C177.912 146.231 143.91 179.187 102.208 179.187C75.5348 179.187 52.0101 165.701 38.0955 145.178C60.5673 130.062 80.1386 143.125 101.64 134.53C110.311 131.073 129.955 104.359 179.554 104.947Z" fill="url(#paint2_linear_8_3623)"/>
<path d="M168.23 78.1404L64.0974 42.9757C63.4987 42.7693 63.4575 42.0367 63.86 41.7066C63.9013 41.6756 63.9426 41.6446 63.9942 41.6137C75.0392 34.5973 88.1487 30.5215 102.208 30.5215C132.886 30.5215 159.053 49.8889 169.097 77.0673C169.097 77.0673 169.118 77.0982 169.128 77.1189C169.149 77.1808 169.169 77.2324 169.19 77.2943C169.19 77.2943 169.19 77.3149 169.19 77.3252C169.272 77.8205 168.798 78.3467 168.22 78.1507L168.23 78.1404Z" fill="white"/>
<path d="M168.23 78.1404L64.0974 42.9757C63.4987 42.7693 63.4575 42.0368 63.86 41.7066C63.9013 41.6756 63.9426 41.6447 63.9942 41.6137C64.0768 41.5724 64.1594 41.5518 64.2626 41.5415C103.994 37.6928 139.172 45.1116 169.004 76.9435C169.035 76.9847 169.076 77.026 169.097 77.0673C169.097 77.0673 169.118 77.0982 169.128 77.1189C169.149 77.1808 169.169 77.2324 169.19 77.2943C169.19 77.2943 169.19 77.3149 169.19 77.3252C169.272 77.8205 168.798 78.3468 168.22 78.1507L168.23 78.1404Z" fill="#ED9B58"/>
<path d="M121.655 115.565C121.438 116.421 120.313 116.143 120.417 115.266C121.304 107.114 121.851 101.46 122.202 88.7476C122.729 75.3544 120.995 62.1161 119.694 48.7849C119.622 48.042 120.551 47.815 120.747 48.5166C128.034 73.7758 124.824 103.265 121.655 115.575V115.565Z" fill="#CC9558"/>
<path d="M70.9308 122.891C81.2429 121.405 91.5653 121.962 101.413 120.229C113.201 118.402 119.312 111.819 129.541 106.392C143.198 98.9626 159.497 98.2197 174.31 102.244C177.169 103.018 177.303 107.042 174.506 108.032C165.226 111.324 155.616 114.667 147.915 119.754C145.613 121.24 143.528 122.87 141.433 124.645C138.13 127.472 134.424 131.104 130.667 134.086C127.58 136.531 124.071 138.853 120.406 140.607C111.467 144.982 100.701 146.489 91.0079 145.673C84.3809 145.199 78.6107 144.023 72.3966 143.434C66.5851 142.867 60.9181 142.949 54.9724 143.589C51.246 143.971 47.5506 144.559 43.8035 145.178C40.8617 145.663 39.0759 142.072 41.2126 139.998C48.6344 132.827 59.9684 124.49 70.9205 122.901L70.9308 122.891Z" fill="white"/>
<defs>
<radialGradient id="paint0_radial_8_3623" cx="0" cy="0" r="1" gradientUnits="userSpaceOnUse" gradientTransform="translate(84.7527 88.8611) scale(77.4181 77.387)">
<stop stop-color="#8FE1E5"/>
<stop offset="0.25" stop-color="#8BDEE3"/>
<stop offset="0.46" stop-color="#81D8DE"/>
<stop offset="0.65" stop-color="#6FCDD5"/>
<stop offset="0.84" stop-color="#56BDC9"/>
<stop offset="1" stop-color="#3CADBC"/>
</radialGradient>
<linearGradient id="paint1_linear_8_3623" x1="24.4493" y1="131.187" x2="179.265" y2="131.187" gradientUnits="userSpaceOnUse">
<stop stop-color="#42C0D1"/>
<stop offset="0.5" stop-color="#41BECF"/>
<stop offset="0.7" stop-color="#3EB7C7"/>
<stop offset="0.85" stop-color="#3AACBB"/>
<stop offset="0.97" stop-color="#349CAA"/>
<stop offset="1" stop-color="#3296A4"/>
</linearGradient>
<linearGradient id="paint2_linear_8_3623" x1="38.0955" y1="142.062" x2="179.554" y2="142.062" gradientUnits="userSpaceOnUse">
<stop stop-color="#FFD64F"/>
<stop offset="0.5" stop-color="#FDD44D"/>
<stop offset="0.7" stop-color="#F5CD47"/>
<stop offset="0.84" stop-color="#E9C23E"/>
<stop offset="0.96" stop-color="#D8B230"/>
<stop offset="1" stop-color="#D1AB2B"/>
</linearGradient>
</defs>
</svg>
