<svg width="239" height="274" viewBox="0 0 239 274" fill="none" xmlns="http://www.w3.org/2000/svg">
<g opacity="0.2" filter="url(#filter0_f_47_667)">
<path fill-rule="evenodd" clip-rule="evenodd" d="M79.7901 92.354C79.3985 92.3333 56.4566 100.205 53.155 101.311L7.93264 116.64C7.5432 116.77 5.46435 117.343 5.38597 117.631L1.8772 272L74.6841 258.808L154.509 267.603L237 260.326V92.354L161.676 111.58C158.34 112.794 159.296 112.491 155.927 111.657C130.516 105.375 105.156 98.8239 79.7901 92.354Z" fill="url(#paint0_linear_47_667)"/>
</g>
<path fill-rule="evenodd" clip-rule="evenodd" d="M75.4042 81.6334C75.0126 81.6127 52.0706 89.4846 48.7691 90.5907L3.54668 105.919C3.15724 106.049 1.07839 106.622 1 106.91L1.00531 272L35.9415 260.17C38.2639 259.399 40.574 258.604 42.9067 257.822C47.5959 256.248 52.1215 254.658 56.8143 253.097C61.478 251.545 66.1485 249.926 70.8009 248.364C71.9721 247.971 73.136 247.609 74.2752 247.183C75.2084 246.834 75.0928 246.788 76.0781 247.039L100.191 253.146C105.16 254.418 110.087 255.619 115.047 256.924C124.963 259.533 134.906 261.903 144.837 264.48L154.158 266.851C154.914 267.059 155.159 266.812 155.893 266.578C161.556 264.769 167.607 262.592 173.28 260.676L208.139 248.87C210.434 248.103 212.848 247.339 215.097 246.511C217.406 245.661 219.733 244.918 222.045 244.145C223.474 243.667 227.917 242.243 228.998 241.782V76.5986L157.29 100.86C153.954 102.074 154.91 101.77 151.541 100.937C126.13 94.6548 100.77 88.1033 75.4042 81.6335L75.4042 81.6334Z" fill="white"/>
<path fill-rule="evenodd" clip-rule="evenodd" d="M188.734 193.715L196.325 207.088L182.148 215.196L174.755 201.71L188.734 193.715ZM154.697 232.055L154.733 232.163L160.059 238.474C160.263 238.722 160.559 239.107 160.742 239.335L154.705 239.339C154.671 239.928 154.606 241.449 154.762 241.945L163.001 241.948C163.313 242.601 170.262 250.411 170.445 250.915L174.106 249.629C173.82 249.565 173.929 249.572 173.732 249.334L166.773 240.724C166.097 239.881 155.07 226.153 154.693 225.874L154.697 232.055ZM62.5018 96.2494L69.4264 138.485L58.3756 140.505C58.3223 140.617 58.3343 140.545 58.3117 140.731L58.3852 141.506C58.427 141.835 58.4676 142.168 58.5126 142.519C58.5996 143.2 58.6502 143.881 58.7734 144.546L74.3382 142.169C74.5405 141.795 73.7992 138.388 73.7347 138.002C73.5005 136.601 73.2407 135.218 73.0053 133.801C72.6491 131.657 71.7769 127.188 71.5792 125.345L75.2986 124.804L75.2924 121.614C75.3083 120.61 75.3233 120.825 75.1335 120.715L70.8675 121.272L66.466 94.8482C65.8639 95.0735 65.1828 95.3159 64.5066 95.5366C63.9148 95.7298 62.9645 95.9768 62.5017 96.2493L62.5018 96.2494ZM16.209 112.192C16.5461 112.254 16.2811 112.006 16.5374 112.489L17.0552 113.643C18.1475 115.902 27.3411 135.856 27.5882 136.605L10.8599 136.57L10.8611 139.241L28.6875 139.214C28.9372 139.282 33.5027 149.431 33.8002 150.036C35.5433 153.582 37.0455 157.32 38.8043 160.868C39.6489 162.571 40.5374 164.525 41.3061 166.285C42.5147 169.053 43.8267 171.659 45.062 174.403C45.7954 176.032 45.8948 175.477 45.2219 177.198L42.9914 182.882C42.3317 182.486 41.6298 181.896 40.9582 181.426L34.942 177.067C30.9682 174.226 26.8939 171.152 22.923 168.338L10.8691 159.607L10.8739 162.793C11.4492 163.127 12.1722 163.691 12.7343 164.111C14.3748 165.339 25.2998 173.144 25.7624 173.592L13.9419 194.706L16.155 195.919L27.8744 175.095C28.4499 175.454 29.079 175.976 29.6553 176.38C33.723 179.232 38.0192 182.605 42.0397 185.354L32.6942 209.555C32.2107 209.591 11.5437 206.018 10.8689 205.755L10.8542 215.93C11.6261 215.903 13.4995 216.33 14.3432 216.487C19.9904 217.534 25.675 218.71 31.2854 219.924C32.401 220.165 32.0919 219.926 33.3828 221.863C35.4986 225.038 37.9966 228.363 40.0395 231.48L41.7275 233.927C42.3132 234.738 42.8015 235.499 43.3877 236.311C43.6714 236.705 43.9081 237.066 44.2175 237.504C44.6777 238.155 44.7511 238.134 44.6442 239.154C44.3853 241.625 44.1435 244.126 43.9227 246.632C44.8635 246.446 46.3686 245.822 47.3065 245.503C48.4193 245.125 49.522 244.74 50.6434 244.357C51.5245 244.056 56.9981 242.301 57.2671 242.023L56.2723 236.229L75.2698 229.357L75.276 229.388L75.2831 216.407L51.6663 222.64L46.694 216.973C45.8732 216.117 44.5521 214.434 43.6787 213.622L55.7705 182.838L71.0199 180.51C70.78 182.891 70.3893 185.375 70.0811 187.765L69.2188 194.759L72.7679 195.34L74.7862 179.917L75.2675 179.862L75.2736 179.904L75.291 166.401L52.752 169.756C52.1682 168.557 51.671 167.217 51.123 165.954C47.2909 157.118 43.5642 147.981 39.75 139.14C37.5454 134.03 35.4064 128.925 33.2509 123.819C32.811 122.777 26.907 109.146 26.8062 108.453C26.7867 108.464 26.758 108.461 26.749 108.489L25.5474 108.956C25.105 109.105 24.6774 109.264 24.2458 109.416C23.3229 109.742 16.4593 112.014 16.209 112.191L16.209 112.192ZM204.627 191.815C206.238 190.798 207.814 189.818 209.456 188.818L219.036 182.845L219.051 229.05L199.813 194.824L204.627 191.815V191.815ZM185.035 168.558C187.854 166.846 190.744 165.043 193.541 163.267C196.354 161.481 199.234 159.761 202.053 157.976C204.866 156.193 207.718 154.441 210.567 152.686L218.046 148.034C218.375 147.838 218.729 147.577 219.063 147.403V178.408C219.007 178.7 214.425 181.422 213.856 181.783C209.064 184.818 204.093 187.784 199.323 190.814C198.944 191.055 198.388 191.439 197.989 191.609L185.035 168.558L185.035 168.558ZM167.057 136.583C167.406 136.162 168.533 135.295 169.039 134.828C169.374 134.519 169.725 134.236 170.083 133.934L175.136 129.579C176.817 128.113 179.549 125.663 181.222 124.324C181.584 124.034 181.924 123.743 182.261 123.43C182.488 123.22 182.995 122.771 183.244 122.606C186.256 127.686 189.402 133.34 192.428 138.313C193.224 139.621 193.975 140.943 194.73 142.256C195.283 143.219 201.427 153.597 201.552 154.028L199.185 155.455C195.418 157.731 191.6 160.231 187.801 162.532C186.28 163.453 184.778 164.494 183.224 165.363L167.057 136.583H167.057ZM189.247 117.402C191.502 115.478 194.484 112.979 196.611 111.051L202.94 105.68L217.252 120.205C217.698 120.653 219.063 121.803 219.063 122.407V142.923C219.063 143.221 217.785 143.895 217.353 144.168L204.692 152.001C204.435 151.757 203.737 150.446 203.493 150.023L199.989 144.028C199.213 142.67 198.433 141.377 197.653 140.028C196.864 138.661 196.158 137.421 195.349 136.089C194.614 134.88 186.206 120.545 186.068 120.107L189.247 117.402L189.247 117.402ZM205.68 103.299C206.024 102.847 208.404 100.939 209.044 100.354C210.444 99.074 218.933 91.9139 219.036 91.7127L219.046 116.847C218.603 116.295 217.918 115.704 217.394 115.13C216.871 114.557 216.29 114.005 215.728 113.455C214.515 112.268 213.508 111.225 212.35 110.063L207.325 104.974C206.798 104.446 206.127 103.844 205.68 103.299V103.299ZM183.762 102.664C183.796 103.198 182.043 109.696 181.681 111.131C181.29 112.679 181.346 112.305 180.267 113.152C173.489 118.47 166.201 123.737 159.414 129.053C158.824 129.516 158.992 129.476 158.055 129.44C156.94 129.398 155.794 129.363 154.665 129.344L154.696 137.733L158.232 138.02C158.542 138.396 165.716 152.891 165.76 153.15L154.699 155.174L154.686 155.197L154.699 170.233C155.004 170.256 154.851 169.983 155.087 170.992C156.077 175.22 157.421 180.32 158.236 184.302C158.847 184.197 161.353 183.661 161.771 183.42L158.406 169.159L172.461 165.123L186.981 190.684L154.729 209.236L154.71 213.242L171.619 203.567L178.92 216.926C179.327 218.023 179.996 218.851 180.553 220.042C181.029 219.919 194.3 212.212 195.893 211.323C196.443 211.015 197.612 210.248 198.094 210.112C198.31 210.637 198.737 211.306 199.033 211.819C200.511 214.382 213.022 236.283 213.084 236.597L219.138 234.565L219.149 90.6641C218.714 90.5867 211.38 93.2257 210.29 93.5917L184.359 102.461C184.271 102.488 184.178 102.513 184.09 102.541L183.89 102.609C183.872 102.616 183.841 102.631 183.826 102.636C183.811 102.642 183.782 102.652 183.762 102.664V102.664Z" fill="#F4E9D3"/>
<path fill-rule="evenodd" clip-rule="evenodd" d="M205.68 103.298C206.127 103.844 206.798 104.446 207.325 104.974L212.35 110.063C213.508 111.225 214.515 112.268 215.728 113.455C216.29 114.004 216.871 114.557 217.394 115.13C217.918 115.704 218.603 116.295 219.046 116.846L219.036 91.7126C218.933 91.9138 210.444 99.0739 209.044 100.354C208.404 100.939 206.024 102.847 205.68 103.298V103.298ZM75.2785 120.654L75.1335 120.715C75.3234 120.825 75.3083 120.61 75.2925 121.614L75.2987 124.804L103.333 120.663L101.137 116.877L85.7083 119.128C85.5383 117.822 84.8063 114.327 84.5204 112.741C84.1402 110.632 83.7778 108.498 83.4087 106.374C82.7393 102.522 82.0867 97.9932 81.3736 94.2342C81.2061 93.3515 81.2917 93.5894 81.4208 93.5121L76.9713 92.368L81.4736 119.785L75.2785 120.654V120.654ZM57.2671 242.023C57.7685 242.034 61.0941 240.798 61.8509 240.536C63.374 240.008 64.8658 239.513 66.3628 238.985C67.5325 238.572 74.8625 235.937 75.5106 235.992L75.2788 235.817L75.2698 229.357L56.2723 236.229L57.2671 242.023V242.023ZM75.2831 216.407L75.2674 179.862L74.7861 179.918L72.7678 195.341L69.2187 194.76L70.081 187.766C70.3892 185.375 70.7799 182.891 71.0198 180.51L55.7704 182.838L43.6786 213.622C44.552 214.434 45.8731 216.117 46.6939 216.973L51.6662 222.641L75.283 216.407L75.2759 229.388C75.7051 229.109 88.7323 224.444 89.7795 224.077C91.2625 223.558 90.8479 223.635 92.4481 223.934C93.3868 224.11 94.338 224.279 95.2621 224.47C98.9437 225.232 102.717 225.885 106.413 226.576C110.078 227.26 113.895 228.121 117.559 228.673L116.994 246.551L121.196 247.593L121.301 241.943L154.762 241.945C154.605 241.449 154.671 239.928 154.705 239.339L121.361 239.34L121.57 228.298C121.624 228.164 137.823 220.967 140.576 219.788C141.446 219.416 142.5 218.984 143.301 218.581C143.592 218.757 152.795 229.784 153.967 231.197C154.174 231.447 154.491 231.862 154.697 232.055L154.693 225.874C155.07 226.153 166.097 239.881 166.773 240.724L173.732 249.334C173.93 249.572 173.82 249.565 174.106 249.629L213.084 236.597C213.022 236.283 200.511 214.382 199.033 211.819C198.737 211.306 198.31 210.636 198.094 210.111C197.612 210.248 196.443 211.015 195.893 211.322C194.3 212.212 181.029 219.919 180.553 220.042C179.996 218.851 179.327 218.023 178.919 216.925L171.619 203.567L154.71 213.242L154.729 209.236L186.981 190.684L172.461 165.123L158.406 169.158L161.771 183.42C161.353 183.66 158.847 184.197 158.236 184.302C157.421 180.32 156.077 175.22 155.087 170.992C154.851 169.983 155.004 170.255 154.699 170.233L154.686 155.197L105.521 164.215L113.513 152.692L113.684 152.489C115.628 149.831 117.711 146.749 119.622 144.014L124.076 137.648C124.454 137.097 125.344 135.978 125.527 135.493L128.199 135.669L128.275 135.695L154.696 137.733L154.665 129.344L124.398 128.484L124.131 127.188C123.891 127.337 124.053 127.2 123.88 127.423C123.827 127.491 123.797 127.554 123.746 127.64C123.62 127.857 123.554 127.952 123.499 128.149C123.178 128.392 122.794 129.145 122.479 129.62L116.543 138.282C116.456 138.407 115.733 139.67 115.436 139.445L115.264 139.214L114.703 139.876C113.717 141.136 107.221 149.595 106.839 149.857V149.969C106.415 150.545 105.958 151.069 105.529 151.633C103.415 154.404 101.107 157.213 98.974 160.031C98.5732 160.561 96.6875 163.156 96.2271 163.262C94.7295 163.608 92.602 163.8 91.0272 164.038C89.0272 164.34 76.3267 166.355 75.4692 166.321L75.2909 166.401L75.2735 179.904L91.9421 177.315L87.9289 213.074L75.2831 216.407L75.2831 216.407ZM10.869 205.755C11.5438 206.018 32.2108 209.591 32.6943 209.555L42.0398 185.354C38.0192 182.605 33.723 179.232 29.6554 176.38C29.079 175.976 28.45 175.455 27.8744 175.095L16.1551 195.919L13.9419 194.707L25.7625 173.593C25.2998 173.145 14.3749 165.339 12.7344 164.112C12.1723 163.691 11.4493 163.127 10.8739 162.793L10.869 205.755L10.869 205.755ZM10.8599 136.57L27.5881 136.605C27.3411 135.856 18.1475 115.902 17.0552 113.643L16.5374 112.489C16.281 112.006 16.5461 112.254 16.209 112.192C15.3888 112.377 14.3267 112.813 13.5177 113.097C13.0452 113.263 11.0617 113.766 10.8713 114.13L10.8599 136.57L10.8599 136.57ZM10.8691 159.607L22.923 168.338C26.8939 171.152 30.9682 174.226 34.942 177.067L40.9582 181.426C41.6298 181.896 42.3317 182.486 42.9914 182.882L45.2219 177.198C45.8948 175.477 45.7953 176.032 45.0621 174.403C43.8267 171.659 42.5148 169.054 41.3061 166.286C40.5374 164.525 39.6488 162.571 38.8043 160.868C37.0455 157.321 35.5433 153.583 33.8002 150.036C33.5027 149.431 28.9372 139.282 28.6876 139.214L10.8611 139.241L10.8691 159.608L10.8691 159.607ZM154.699 170.233L154.729 209.236C154.119 209.502 153.444 209.962 152.819 210.31L147.204 213.508L140.684 174.285L154.699 170.233L154.699 170.233ZM154.718 213.279L154.701 225.753L147.827 217.246L154.718 213.279H154.718ZM100.141 196.069L134.992 196.092L136.638 208.155L119.396 217.481C118.972 217.701 118.538 217.498 118.049 217.367C113.371 216.106 108.266 214.824 103.699 213.526C102.174 213.093 100.006 212.414 98.4761 212.149L100.141 196.069H100.141ZM132.14 175.247L134.079 189.815L100.791 189.813L102.006 178.279L132.14 175.247ZM174.755 201.711L182.148 215.196L196.325 207.088L188.734 193.715L174.755 201.711ZM185.035 168.558L197.989 191.609C198.388 191.439 198.944 191.055 199.323 190.814C204.093 187.784 209.064 184.818 213.856 181.783C214.425 181.422 219.007 178.7 219.063 178.407V147.403C218.73 147.577 218.375 147.838 218.046 148.034L210.567 152.686C207.718 154.441 204.866 156.193 202.053 157.975C199.234 159.761 196.354 161.48 193.541 163.267C190.745 165.043 187.854 166.846 185.035 168.558L185.035 168.558ZM199.813 194.824L219.051 229.05L219.036 182.845L209.456 188.818C207.814 189.818 206.238 190.798 204.627 191.815L199.813 194.824V194.824ZM167.057 136.583L183.224 165.363C184.778 164.494 186.28 163.453 187.801 162.532C191.6 160.231 195.418 157.731 199.185 155.454L201.552 154.028C201.427 153.596 195.283 143.219 194.73 142.256C193.975 140.943 193.224 139.621 192.428 138.312C189.402 133.34 186.256 127.686 183.244 122.606C182.995 122.771 182.488 123.22 182.261 123.43C181.924 123.743 181.584 124.033 181.222 124.323C179.549 125.663 176.817 128.113 175.136 129.579L170.083 133.934C169.725 134.236 169.374 134.519 169.039 134.828C168.533 135.295 167.406 136.162 167.057 136.583H167.057ZM186.068 120.107C186.205 120.545 194.614 134.88 195.349 136.089C196.158 137.421 196.863 138.661 197.653 140.028C198.433 141.377 199.213 142.67 199.989 144.028L203.493 150.023C203.737 150.446 204.435 151.757 204.692 152.001L217.353 144.168C217.785 143.895 219.063 143.221 219.063 142.923V122.407C219.063 121.803 217.697 120.653 217.251 120.205L202.94 105.68L196.611 111.051C194.483 112.979 191.502 115.478 189.247 117.402L186.068 120.107L186.068 120.107Z" fill="#F9D1B1"/>
<path fill-rule="evenodd" clip-rule="evenodd" d="M75.2782 120.654L81.4733 119.785L76.9709 92.368L75.3218 91.9701L75.2782 120.654V120.654ZM154.705 239.339L154.732 232.163L154.697 232.055C154.49 231.862 154.174 231.447 153.966 231.197C152.795 229.784 143.591 218.757 143.301 218.581C142.5 218.984 141.445 219.416 140.576 219.788C137.823 220.967 121.624 228.164 121.57 228.298L121.36 239.34L154.705 239.339L154.705 239.339ZM121.196 247.593C122.417 248.019 124.035 248.338 125.309 248.657L146.18 253.971C147.572 254.331 148.918 254.692 150.309 255.032C151.199 255.249 153.791 256.035 154.532 256.056C154.769 256.109 154.74 256.25 154.722 255.368C154.717 255.073 154.718 254.778 154.718 254.483C154.718 252.655 154.635 242.705 154.762 241.945L121.3 241.943L121.196 247.593ZM113.684 152.489L113.513 152.692L105.521 164.215L154.685 155.197L154.699 155.174L154.696 137.733L128.275 135.695L128.199 135.669L125.527 135.493C125.344 135.978 124.454 137.097 124.076 137.648L119.622 144.014C117.71 146.749 115.628 149.831 113.684 152.489L113.684 152.489ZM124.131 127.188L124.397 128.484L154.665 129.344C154.8 128.741 154.77 112.977 154.652 112.557L135.387 107.544C134.937 108.244 134.417 109.365 134.065 110.071C132.467 113.275 128.968 119.336 127.049 122.408C126.619 123.095 124.229 126.794 124.13 127.188H124.131ZM75.2983 124.804L75.2781 166.256L75.4688 166.321C76.3264 166.355 89.027 164.34 91.0269 164.038C92.6016 163.8 94.7292 163.608 96.2267 163.262C96.6872 163.156 98.5728 160.561 98.9737 160.031C101.107 157.213 103.415 154.404 105.528 151.633C105.958 151.069 106.415 150.545 106.839 149.969V149.857C107.221 149.595 113.717 141.136 114.703 139.876L115.263 139.214C115.108 138.848 113.681 136.888 113.322 136.349C112.685 135.391 112.051 134.47 111.413 133.51C110.217 131.711 108.814 129.393 107.673 127.742C106.978 126.535 106.221 125.406 105.492 124.214C105.131 123.626 104.755 122.992 104.4 122.4C104.089 121.88 103.696 121.127 103.333 120.663L75.2984 124.804L75.2983 124.804ZM101.137 116.877C101.005 116.492 100.67 116.016 100.451 115.62C100.217 115.196 100.012 114.787 99.7653 114.368C98.6415 112.454 96.6915 108.635 95.6992 106.646C94.0122 103.263 92.2007 99.5905 90.7916 95.9157L81.4205 93.5121C81.2914 93.5894 81.2058 93.3515 81.3733 94.2342C82.0865 97.9933 82.739 102.522 83.4084 106.374C83.7775 108.498 84.1399 110.632 84.5201 112.741C84.806 114.327 85.538 117.822 85.708 119.128L101.137 116.877H101.137Z" fill="#89B039"/>
<path fill-rule="evenodd" clip-rule="evenodd" d="M147.827 217.246L154.701 225.753L154.718 213.279L147.827 217.246H147.827ZM75.2735 179.904L75.2673 179.862L75.283 216.407L87.9288 213.073L91.942 177.315L75.2734 179.904L75.2735 179.904ZM75.2759 229.388L75.2697 229.357L75.2787 235.816L75.5105 235.992L116.994 246.551L117.559 228.672C113.895 228.121 110.078 227.26 106.413 226.576C102.717 225.885 98.9436 225.232 95.262 224.47C94.338 224.279 93.3868 224.11 92.4481 223.934C90.8479 223.635 91.2625 223.558 89.7795 224.077C88.7323 224.444 75.7051 229.109 75.2758 229.388H75.2759ZM98.4761 212.148C100.006 212.414 102.174 213.093 103.699 213.526C108.266 214.824 113.371 216.106 118.049 217.366C118.538 217.498 118.972 217.701 119.396 217.481L136.638 208.155L134.992 196.092L100.141 196.068L98.4761 212.148H98.4761ZM102.006 178.279L100.791 189.812L134.079 189.815L132.139 175.246L102.006 178.279ZM154.729 209.236L154.699 170.233L140.684 174.285L147.205 213.508L152.819 210.31C153.444 209.962 154.119 209.502 154.729 209.235L154.729 209.236Z" fill="#F2B58A"/>
<path fill-rule="evenodd" clip-rule="evenodd" d="M154.705 239.339L160.742 239.335C160.559 239.107 160.263 238.722 160.059 238.474L154.733 232.163L154.705 239.339ZM66.4661 94.8483L70.8676 121.272L75.1336 120.715L75.2786 120.654L75.3221 91.9701C75.1123 91.8047 74.7549 92.0213 74.2508 92.1872L66.4661 94.8483ZM43.9227 246.632C44.1435 244.126 44.3853 241.625 44.6442 239.154C44.7511 238.134 44.6777 238.155 44.2175 237.504C43.9081 237.066 43.6714 236.705 43.3877 236.312C42.8015 235.499 42.3132 234.738 41.7275 233.927L40.0395 231.48C37.9966 228.364 35.4986 225.038 33.3828 221.863C32.0918 219.926 32.4009 220.165 31.2854 219.924C25.675 218.71 19.9904 217.534 14.3432 216.487C13.4995 216.33 11.6261 215.904 10.8542 215.93L10.8763 257.967C12.1522 257.662 25.6086 252.928 27.41 252.322C28.3766 251.997 43.3849 246.951 43.9226 246.632L43.9227 246.632ZM26.8061 108.453C26.9069 109.146 32.8109 122.778 33.2508 123.82C35.4063 128.925 37.5453 134.03 39.7499 139.14C43.5641 147.981 47.2908 157.118 51.1229 165.954C51.6709 167.217 52.168 168.557 52.7519 169.756L75.2909 166.401L75.4691 166.321L75.2784 166.256L75.2986 124.804L71.5792 125.345C71.7769 127.188 72.6491 131.657 73.0053 133.801C73.2407 135.218 73.5005 136.601 73.7347 138.002C73.7992 138.388 74.5405 141.795 74.3382 142.17L58.7734 144.547C58.6502 143.881 58.5996 143.2 58.5126 142.519C58.4676 142.168 58.427 141.835 58.3851 141.506L58.3117 140.731C58.3343 140.545 58.3223 140.617 58.3756 140.505L69.4264 138.485L62.5017 96.2495C61.7924 96.4128 60.9682 96.7758 60.2636 97.0068C55.3286 98.6251 49.5721 100.65 44.7011 102.361C43.7599 102.692 27.351 108.44 26.8061 108.453V108.453ZM154.652 112.557C154.77 112.977 154.8 128.741 154.665 129.344C155.793 129.363 156.94 129.397 158.055 129.44C158.992 129.476 158.823 129.516 159.414 129.053C166.201 123.736 173.489 118.47 180.267 113.152C181.346 112.305 181.29 112.679 181.68 111.131C182.043 109.696 183.796 103.198 183.762 102.664L154.652 112.557L154.652 112.557ZM154.699 155.174L165.76 153.15C165.716 152.89 158.542 138.396 158.231 138.019L154.696 137.733L154.699 155.174ZM154.532 256.056C154.842 256.248 155.946 255.752 156.502 255.566C158.581 254.871 169.508 251.122 170.444 250.915C170.262 250.41 163.313 242.601 163.001 241.948L154.762 241.945C154.635 242.705 154.718 252.655 154.718 254.483C154.718 254.778 154.717 255.073 154.723 255.368C154.74 256.25 154.769 256.109 154.532 256.056H154.532Z" fill="#B8CD65"/>
<g opacity="0.5" filter="url(#filter1_f_47_667)">
<ellipse cx="115.035" cy="143.603" rx="28.0701" ry="7.91489" fill="url(#paint1_radial_47_667)"/>
</g>
<g filter="url(#filter2_dd_47_667)">
<path fill-rule="evenodd" clip-rule="evenodd" d="M162.528 70.5089C162.74 71.5822 163.504 72.8615 164.268 74.08C167.258 78.8497 166.693 85.0734 162.893 89.2142L154.127 98.767C154.127 108.653 147.874 112.29 138.159 113.62L119.019 136.385C117.16 138.597 113.751 138.561 111.938 136.312L93.7887 113.793C83.4103 112.624 76.5805 109.161 76.5805 98.9944L67.5047 89.2412C63.6506 85.0992 63.0606 78.8503 66.0702 74.0446C66.8231 72.8423 67.5759 71.5788 67.7872 70.5089C68.0449 69.2045 67.7535 67.3394 67.4716 65.5355L67.4715 65.5349C67.0391 62.7674 66.549 59.631 67.7182 56.8423C68.9492 53.906 71.497 52.33 73.7449 50.9395L73.7455 50.9392L73.7482 50.9375C75.1316 50.0817 76.4378 49.2736 77.0717 48.3601C77.7487 47.3846 78.18 45.5922 78.5972 43.8586L78.5978 43.8564L78.5981 43.8552C79.2614 41.0987 80.0132 37.9747 82.2201 35.947C84.5347 33.8201 87.6142 33.6534 90.0887 33.5194L90.0901 33.5194L90.0912 33.5193C91.5631 33.4397 93.085 33.3573 93.9332 32.8865C94.7955 32.4077 95.8169 31.0618 96.8043 29.7602C98.4973 27.5288 100.416 24.9998 103.368 24.2279C106.303 23.4604 109.001 24.7828 111.382 25.9499L111.384 25.9509C112.768 26.6291 114.199 27.3302 115.158 27.3302C116.117 27.3302 117.547 26.6291 118.931 25.9509C121.313 24.7833 124.013 23.4606 126.948 24.2277C129.899 24.9998 131.818 27.5287 133.511 29.7601L133.511 29.7602C134.499 31.0618 135.52 32.4077 136.382 32.8865C137.231 33.3573 138.753 33.4397 140.225 33.5193L140.226 33.5194L140.227 33.5194C142.702 33.6534 145.781 33.8201 148.096 35.9472C150.303 37.975 151.054 41.0989 151.718 43.8554L151.718 43.8564L151.718 43.8581C152.136 45.5921 152.567 47.3847 153.244 48.3603C153.878 49.2742 155.185 50.0825 156.569 50.9384L156.57 50.9392L156.571 50.9395C158.819 52.33 161.367 53.906 162.598 56.8423C163.767 59.631 163.277 62.7677 162.844 65.5352L162.844 65.5357C162.562 67.3394 162.271 69.2049 162.528 70.5089Z" fill="url(#paint2_linear_47_667)"/>
<path d="M164.268 74.08L160.914 76.1817L160.915 76.1821L164.268 74.08ZM162.528 70.5089L166.411 69.7424L166.411 69.7418L162.528 70.5089ZM162.893 89.2142L165.809 91.89L165.809 91.8898L162.893 89.2142ZM154.127 98.767L151.211 96.0913L150.169 97.2264V98.767H154.127ZM138.159 113.62L137.622 109.699L136.111 109.906L135.13 111.073L138.159 113.62ZM119.019 136.385L122.048 138.932L122.048 138.932L119.019 136.385ZM111.938 136.312L115.019 133.828H115.019L111.938 136.312ZM93.7887 113.793L96.8699 111.31L95.8487 110.043L94.2316 109.86L93.7887 113.793ZM76.5805 98.9944H80.5379V97.4379L79.4776 96.2985L76.5805 98.9944ZM67.5047 89.2412L64.6075 91.937L64.6076 91.9371L67.5047 89.2412ZM66.0702 74.0446L69.4242 76.145L69.4242 76.145L66.0702 74.0446ZM67.7872 70.5089L63.9048 69.7421L63.9048 69.7421L67.7872 70.5089ZM67.4716 65.5355L71.3816 64.9244L71.3811 64.9213L67.4716 65.5355ZM67.4715 65.5349L63.5615 66.1458L63.562 66.149L67.4715 65.5349ZM67.7182 56.8423L71.3679 58.3724L71.3679 58.3723L67.7182 56.8423ZM73.7449 50.9395L75.8267 54.3052L75.8296 54.3034L73.7449 50.9395ZM73.7455 50.9392L71.6615 47.5749L71.6609 47.5753L73.7455 50.9392ZM73.7482 50.9375L71.6663 47.572L71.6642 47.5732L73.7482 50.9375ZM77.0717 48.3601L73.8205 46.1038L73.8203 46.104L77.0717 48.3601ZM78.5972 43.8586L82.4448 44.7845L82.4451 44.7833L78.5972 43.8586ZM78.5978 43.8564L74.7501 42.9307L74.7499 42.9317L78.5978 43.8564ZM78.5981 43.8552L74.7505 42.9292L74.7504 42.9295L78.5981 43.8552ZM82.2201 35.947L84.8976 38.8611L84.8978 38.861L82.2201 35.947ZM90.0887 33.5194L89.8753 29.5678L89.8748 29.5678L90.0887 33.5194ZM90.0901 33.5194L89.8804 29.5675L89.8767 29.5677L90.0901 33.5194ZM90.0912 33.5193L90.3009 37.4712L90.305 37.471L90.0912 33.5193ZM93.9332 32.8865L95.8539 36.3466L95.8544 36.3463L93.9332 32.8865ZM96.8043 29.7602L93.6516 27.3682L93.6515 27.3683L96.8043 29.7602ZM103.368 24.2279L102.366 20.3991L102.366 20.3992L103.368 24.2279ZM111.382 25.9499L109.641 29.5036L109.641 29.5038L111.382 25.9499ZM111.384 25.9509L113.126 22.3974L113.126 22.3971L111.384 25.9509ZM118.931 25.9509L120.673 29.5045L120.673 29.5044L118.931 25.9509ZM126.948 24.2277L127.949 20.3991L127.948 20.3988L126.948 24.2277ZM133.511 29.7601L130.359 32.1523L130.363 32.1585L133.511 29.7601ZM133.511 29.7602L136.664 27.368L136.659 27.3618L133.511 29.7602ZM136.382 32.8865L134.461 36.3463L134.462 36.3466L136.382 32.8865ZM140.225 33.5193L140.011 37.471L140.011 37.471L140.225 33.5193ZM140.226 33.5194L140.012 37.4711L140.013 37.4711L140.226 33.5194ZM140.227 33.5194L140.441 29.5678L140.44 29.5677L140.227 33.5194ZM148.096 35.9472L150.773 33.0331V33.0331L148.096 35.9472ZM151.718 43.8554L155.57 42.949L155.568 42.9392L155.565 42.9295L151.718 43.8554ZM151.718 43.8564L147.866 44.7628L147.868 44.7714L147.87 44.7799L151.718 43.8564ZM151.718 43.8581L147.87 44.7816L147.871 44.784L151.718 43.8581ZM153.244 48.3603L156.495 46.1042L156.495 46.104L153.244 48.3603ZM156.569 50.9384L158.661 47.5789L158.651 47.5727L156.569 50.9384ZM156.57 50.9392L154.478 54.2986L154.492 54.3074L154.507 54.316L156.57 50.9392ZM156.571 50.9395L158.653 47.5739L158.644 47.5683L158.634 47.5627L156.571 50.9395ZM162.598 56.8423L158.948 58.3723L158.948 58.3724L162.598 56.8423ZM162.844 65.5352L158.934 64.9242L158.931 64.9432L158.928 64.9621L162.844 65.5352ZM162.844 65.5357L166.754 66.1468L166.757 66.1278L166.76 66.1087L162.844 65.5357ZM167.621 71.9783C167.243 71.3757 166.939 70.8724 166.708 70.4253C166.596 70.2085 166.519 70.0377 166.468 69.9076C166.416 69.7742 166.407 69.7234 166.411 69.7424L158.646 71.2754C159.027 73.2028 160.251 75.1238 160.914 76.1817L167.621 71.9783ZM165.809 91.8898C170.816 86.4332 171.555 78.2533 167.621 71.9779L160.915 76.1821C162.961 79.446 162.569 83.7137 159.977 86.5386L165.809 91.8898ZM157.043 101.443L165.809 91.89L159.977 86.5385L151.211 96.0913L157.043 101.443ZM138.696 117.541C143.801 116.842 148.684 115.467 152.317 112.444C156.169 109.239 158.084 104.644 158.084 98.767H150.169C150.169 102.776 148.958 104.942 147.255 106.36C145.333 107.959 142.233 109.068 137.622 109.699L138.696 117.541ZM135.13 111.073L115.99 133.838L122.048 138.932L141.188 116.167L135.13 111.073ZM115.99 133.838C115.734 134.143 115.269 134.139 115.019 133.828L108.857 138.795C112.233 142.984 118.586 143.05 122.048 138.932L115.99 133.838ZM115.019 133.828L96.8699 111.31L90.7074 116.276L108.857 138.795L115.019 133.828ZM72.6231 98.9944C72.6231 105.099 74.7486 109.766 78.8987 112.919C82.7742 115.863 87.9569 117.119 93.3457 117.726L94.2316 109.86C89.242 109.298 85.8207 108.238 83.6867 106.617C81.8273 105.204 80.5379 103.057 80.5379 98.9944H72.6231ZM64.6076 91.9371L73.6834 101.69L79.4776 96.2985L70.4019 86.5453L64.6076 91.9371ZM62.7161 71.9441C58.7589 78.263 59.5295 86.4798 64.6075 91.937L70.4019 86.5453C67.7716 83.7186 67.3623 79.4375 69.4242 76.145L62.7161 71.9441ZM63.9048 69.7421C63.9081 69.7253 63.8992 69.7762 63.8481 69.9073C63.7983 70.0352 63.7227 70.2031 63.613 70.4161C63.3868 70.8557 63.088 71.3503 62.7161 71.9441L69.4242 76.145C70.08 75.0979 71.2903 73.1967 71.6697 71.2757L63.9048 69.7421ZM63.5616 66.1465C63.7071 67.0772 63.8277 67.8598 63.8898 68.5594C63.955 69.2938 63.9244 69.643 63.9048 69.7421L71.6697 71.2758C71.9078 70.0704 71.8603 68.8349 71.7737 67.8596C71.6841 66.8496 71.5181 65.7977 71.3816 64.9244L63.5616 66.1465ZM63.562 66.149L63.5621 66.1496L71.3811 64.9213L71.381 64.9208L63.562 66.149ZM64.0686 55.3121C62.3917 59.3116 63.1653 63.6103 63.5615 66.1458L71.3815 64.924C70.9129 61.9246 70.7063 59.9503 71.3679 58.3724L64.0686 55.3121ZM71.6631 47.5739C69.5607 48.8744 65.8594 51.0403 64.0685 55.3122L71.3679 58.3723C72.039 56.7716 73.4334 55.7855 75.8267 54.3052L71.6631 47.5739ZM71.6609 47.5753L71.6603 47.5757L75.8296 54.3034L75.8302 54.303L71.6609 47.5753ZM71.6642 47.5732L71.6615 47.5749L75.8295 54.3034L75.8322 54.3018L71.6642 47.5732ZM73.8203 46.104C73.8775 46.0216 73.8101 46.1433 73.3551 46.476C72.9238 46.7914 72.3901 47.1242 71.6663 47.572L75.8302 54.303C76.4898 53.895 77.3009 53.3959 78.027 52.8649C78.7294 52.3513 79.632 51.6122 80.3231 50.6161L73.8203 46.104ZM74.7496 42.9326C74.534 43.8289 74.3519 44.5785 74.1529 45.2187C73.9363 45.9152 73.8019 46.1306 73.8205 46.1038L80.323 50.6163C81.0185 49.6141 81.4382 48.4455 81.7109 47.5686C82.0011 46.6353 82.2433 45.622 82.4448 44.7845L74.7496 42.9326ZM74.7499 42.9317L74.7493 42.9339L82.4451 44.7833L82.4457 44.7811L74.7499 42.9317ZM74.7504 42.9295L74.7501 42.9307L82.4454 44.782L82.4457 44.7808L74.7504 42.9295ZM79.5426 33.0328C76.2906 36.0208 75.3487 40.4433 74.7505 42.9292L82.4457 44.7811C83.1741 41.7542 83.7357 39.9287 84.8976 38.8611L79.5426 33.0328ZM89.8748 29.5678C87.6225 29.6897 83.057 29.8036 79.5425 33.0329L84.8978 38.861C86.0125 37.8367 87.6058 37.6171 90.3026 37.4711L89.8748 29.5678ZM89.8767 29.5677L89.8753 29.5678L90.3021 37.4711L90.3035 37.4711L89.8767 29.5677ZM89.8814 29.5674L89.8804 29.5675L90.2999 37.4712L90.3009 37.4712L89.8814 29.5674ZM92.0125 29.4264C92.1779 29.3345 92.2579 29.3238 92.1726 29.3463C92.0974 29.3661 91.9548 29.396 91.7231 29.4269C91.2358 29.4918 90.6504 29.5258 89.8773 29.5676L90.305 37.471C91.0038 37.4332 91.9154 37.3861 92.7691 37.2723C93.5485 37.1684 94.7546 36.9568 95.8539 36.3466L92.0125 29.4264ZM93.6515 27.3683C93.1381 28.0451 92.7192 28.5942 92.3367 29.0337C92.1516 29.2464 92.0168 29.3843 91.9273 29.4666C91.8256 29.5602 91.8569 29.5128 92.012 29.4266L95.8544 36.3463C96.9296 35.7493 97.7797 34.8358 98.3069 34.2301C98.8975 33.5515 99.4831 32.7769 99.9571 32.1521L93.6515 27.3683ZM102.366 20.3992C97.8654 21.5764 95.1631 25.3759 93.6516 27.3682L99.9571 32.1522C101.832 29.6816 102.967 28.4231 104.369 28.0565L102.366 20.3992ZM113.124 22.3963C110.993 21.3518 106.949 19.2009 102.366 20.3991L104.369 28.0566C105.656 27.7199 107.009 28.2138 109.641 29.5036L113.124 22.3963ZM113.126 22.3971L113.124 22.3961L109.641 29.5038L109.643 29.5048L113.126 22.3971ZM115.158 23.3728C115.372 23.3728 115.46 23.4077 115.363 23.3824C115.281 23.3609 115.132 23.3131 114.899 23.2202C114.414 23.0262 113.851 22.7526 113.126 22.3974L109.643 29.5045C110.302 29.8275 111.146 30.2435 111.961 30.5696C112.689 30.8605 113.879 31.2876 115.158 31.2876V23.3728ZM117.189 22.3974C116.465 22.7526 115.901 23.0262 115.416 23.2202C115.184 23.3131 115.034 23.3609 114.952 23.3824C114.856 23.4077 114.943 23.3728 115.158 23.3728V31.2876C116.436 31.2876 117.627 30.8605 118.354 30.5696C119.17 30.2435 120.014 29.8275 120.673 29.5045L117.189 22.3974ZM127.948 20.3988C123.366 19.2012 119.321 21.3523 117.189 22.3975L120.673 29.5044C123.305 28.2143 124.659 27.7199 125.947 28.0565L127.948 20.3988ZM136.664 27.3679C135.152 25.3759 132.45 21.5765 127.949 20.3991L125.946 28.0563C127.348 28.423 128.484 29.6815 130.359 32.1523L136.664 27.3679ZM136.659 27.3618L136.659 27.3617L130.363 32.1585L130.363 32.1586L136.659 27.3618ZM138.304 29.4266C138.459 29.5128 138.49 29.5602 138.388 29.4666C138.299 29.3843 138.164 29.2463 137.979 29.0336C137.596 28.5941 137.177 28.0449 136.664 27.368L130.359 32.1524C130.833 32.7771 131.418 33.5517 132.009 34.2301C132.536 34.8358 133.386 35.7493 134.461 36.3463L138.304 29.4266ZM140.438 29.5676C139.665 29.5258 139.08 29.4918 138.593 29.4269C138.361 29.396 138.218 29.3661 138.143 29.3463C138.058 29.3238 138.138 29.3345 138.303 29.4264L134.462 36.3466C135.561 36.9568 136.767 37.1684 137.547 37.2723C138.4 37.3861 139.312 37.4332 140.011 37.471L140.438 29.5676ZM140.439 29.5677L140.438 29.5676L140.011 37.471L140.012 37.4711L140.439 29.5677ZM140.44 29.5677L140.438 29.5676L140.013 37.4711L140.014 37.4712L140.44 29.5677ZM150.773 33.0331C147.259 29.8036 142.693 29.6897 140.441 29.5678L140.013 37.4711C142.71 37.6171 144.303 37.8367 145.418 38.8612L150.773 33.0331ZM155.565 42.9295C154.967 40.4435 154.025 36.0211 150.773 33.0331L145.418 38.8612C146.58 39.9288 147.142 41.7544 147.87 44.7813L155.565 42.9295ZM155.57 42.95L155.57 42.949L147.865 44.7618L147.866 44.7628L155.57 42.95ZM155.567 42.9345L155.566 42.9328L147.87 44.7799L147.87 44.7816L155.567 42.9345ZM156.495 46.104C156.514 46.1308 156.379 45.9154 156.163 45.2187C155.964 44.5785 155.782 43.8286 155.566 42.9322L147.871 44.784C148.072 45.6215 148.315 46.635 148.605 47.5684C148.877 48.4455 149.297 49.6142 149.993 50.6165L156.495 46.104ZM158.651 47.5727C157.926 47.1248 157.393 46.7919 156.961 46.4764C156.506 46.1435 156.438 46.0217 156.495 46.1042L149.993 50.6164C150.684 51.6127 151.587 52.352 152.29 52.8658C153.016 53.3969 153.828 53.8961 154.487 54.3041L158.651 47.5727ZM158.662 47.5797L158.661 47.5789L154.477 54.2979L154.478 54.2986L158.662 47.5797ZM158.634 47.5627L158.634 47.5623L154.507 54.316L154.507 54.3164L158.634 47.5627ZM166.247 55.3122C164.456 51.0403 160.755 48.8744 158.653 47.5739L154.489 54.3052C156.882 55.7855 158.277 56.7716 158.948 58.3723L166.247 55.3122ZM166.754 66.1461C167.15 63.6106 167.924 59.3116 166.247 55.3121L158.948 58.3724C159.609 59.9503 159.403 61.9249 158.934 64.9242L166.754 66.1461ZM166.76 66.1087L166.76 66.1082L158.928 64.9621L158.928 64.9626L166.76 66.1087ZM166.411 69.7418C166.391 69.6432 166.361 69.2941 166.426 68.5596C166.488 67.86 166.609 67.0772 166.754 66.1468L158.934 64.9245C158.798 65.7978 158.632 66.8497 158.542 67.8598C158.455 68.8349 158.408 70.0706 158.646 71.276L166.411 69.7418Z" fill="white"/>
</g>
<defs>
<filter id="filter0_f_47_667" x="0.118332" y="90.5951" width="238.641" height="183.164" filterUnits="userSpaceOnUse" color-interpolation-filters="sRGB">
<feFlood flood-opacity="0" result="BackgroundImageFix"/>
<feBlend mode="normal" in="SourceGraphic" in2="BackgroundImageFix" result="shape"/>
<feGaussianBlur stdDeviation="0.879433" result="effect1_foregroundBlur_47_667"/>
</filter>
<filter id="filter1_f_47_667" x="81.6882" y="130.411" width="66.6936" height="26.383" filterUnits="userSpaceOnUse" color-interpolation-filters="sRGB">
<feFlood flood-opacity="0" result="BackgroundImageFix"/>
<feBlend mode="normal" in="SourceGraphic" in2="BackgroundImageFix" result="shape"/>
<feGaussianBlur stdDeviation="2.6383" result="effect1_foregroundBlur_47_667"/>
</filter>
<filter id="filter2_dd_47_667" x="23.0181" y="0.215593" width="184.3" height="196.297" filterUnits="userSpaceOnUse" color-interpolation-filters="sRGB">
<feFlood flood-opacity="0" result="BackgroundImageFix"/>
<feColorMatrix in="SourceAlpha" type="matrix" values="0 0 0 0 0 0 0 0 0 0 0 0 0 0 0 0 0 0 127 0" result="hardAlpha"/>
<feOffset dy="17.3516"/>
<feGaussianBlur stdDeviation="18.591"/>
<feComposite in2="hardAlpha" operator="out"/>
<feColorMatrix type="matrix" values="0 0 0 0 0 0 0 0 0 0 0 0 0 0 0 0 0 0 0.07 0"/>
<feBlend mode="normal" in2="BackgroundImageFix" result="effect1_dropShadow_47_667"/>
<feColorMatrix in="SourceAlpha" type="matrix" values="0 0 0 0 0 0 0 0 0 0 0 0 0 0 0 0 0 0 127 0" result="hardAlpha"/>
<feOffset dy="4.95761"/>
<feGaussianBlur stdDeviation="3.71821"/>
<feComposite in2="hardAlpha" operator="out"/>
<feColorMatrix type="matrix" values="0 0 0 0 0 0 0 0 0 0 0 0 0 0 0 0 0 0 0.15 0"/>
<feBlend mode="normal" in2="effect1_dropShadow_47_667" result="effect2_dropShadow_47_667"/>
<feBlend mode="normal" in="SourceGraphic" in2="effect2_dropShadow_47_667" result="shape"/>
</filter>
<linearGradient id="paint0_linear_47_667" x1="1.8772" y1="272" x2="239.596" y2="272" gradientUnits="userSpaceOnUse">
<stop stop-color="#3E3E3E"/>
<stop offset="0.302293" stop-color="#3E3E3E" stop-opacity="0.5"/>
<stop offset="0.642259" stop-color="#3E3E3E"/>
<stop offset="1" stop-color="#3E3E3E" stop-opacity="0.5"/>
</linearGradient>
<radialGradient id="paint1_radial_47_667" cx="0" cy="0" r="1" gradientUnits="userSpaceOnUse" gradientTransform="translate(115.035 143.603) scale(32.8947 9.95219)">
<stop stop-color="#161D25"/>
<stop offset="1" stop-color="#63686C"/>
</radialGradient>
<linearGradient id="paint2_linear_47_667" x1="115.168" y1="24" x2="115.168" y2="138.022" gradientUnits="userSpaceOnUse">
<stop stop-color="#42BFD0"/>
<stop offset="1" stop-color="#3295A3"/>
</linearGradient>
</defs>
</svg>
