<svg width="90" height="90" viewBox="0 0 90 90" fill="none" xmlns="http://www.w3.org/2000/svg">
<g clip-path="url(#clip0_192_4919)">
<path d="M77.0365 53.5919L32.0797 27.6356C30.6573 26.8143 28.332 26.8143 26.909 27.6356L6.31811 39.524L-0.00012207 38.2661V44.0479C-0.00012207 44.5893 0.355681 45.1285 1.06729 45.5405L57.9194 78.3649C59.3419 79.1861 61.667 79.1861 63.0888 78.3649L88.9327 63.444C89.6443 63.0334 90.0001 62.4934 90.0001 61.9528V56.1711L77.0365 53.5919Z" fill="#676D67"/>
<path d="M77.0365 53.1243L32.0797 27.168C30.6573 26.3482 28.332 26.3482 26.909 27.168L6.31811 39.0563L-0.00012207 37.7985V43.5817C-0.00012207 44.1218 0.355681 44.6623 1.06729 45.073L57.9194 77.8988C59.3419 78.7186 61.667 78.7186 63.0888 77.8988L88.9326 62.9779C89.6435 62.5673 89.9993 62.0258 89.9993 61.4853V55.7035L77.0365 53.1243Z" fill="#7A7C7A"/>
<path d="M57.9194 77.8981C59.3419 78.7179 61.667 78.7179 63.0888 77.8981L88.9326 62.9772C89.6435 62.5673 89.9993 62.0258 89.9993 61.4853V55.7035L77.0367 53.1245L32.0797 27.168C30.6573 26.3482 28.332 26.3482 26.909 27.168L6.31811 39.0563L-0.00012207 37.7985" fill="#5B5E5B"/>
<path d="M56.8909 41.4946V77.3045L57.9195 77.8993C59.342 78.7191 61.6672 78.7191 63.0889 77.8993L88.9328 62.9784C89.6437 62.5678 89.9995 62.0264 89.9995 61.4858V55.704L77.0369 53.125L56.8909 41.4946Z" fill="#4E514E"/>
<path d="M63.1678 45.115V77.8516L88.9322 62.9764C89.6431 62.5658 89.9989 62.0243 89.9989 61.4837V55.702L77.0363 53.123L63.1678 45.115Z" fill="#383A38"/>
<path d="M88.9318 54.7711L32.0795 21.9452C30.6572 21.1254 28.3319 21.1254 26.9088 21.9452L1.06712 36.8661C-0.355381 37.6873 -0.355381 39.0304 1.06712 39.8502L57.9192 72.6767C59.3417 73.4965 61.6669 73.4965 63.0886 72.6767L88.9325 57.7551C90.3534 56.9353 90.3534 55.5923 88.9318 54.7711Z" fill="#6D706D"/>
<path d="M88.9318 54.2133L32.0795 21.3875C30.6572 20.5677 28.3319 20.5677 26.9088 21.3875L1.06712 36.3084C-0.355381 37.1282 -0.355381 38.4726 1.06712 39.2924L57.9192 72.1183C59.3417 72.9381 61.6669 72.9381 63.0886 72.1183L88.9325 57.1974C90.3534 56.3762 90.3534 55.0331 88.9318 54.2133Z" fill="#5B5E5B"/>
<path d="M55.4092 37.7104H55.9133L36.1845 26.3206C34.7635 25.4993 32.4369 25.4993 31.0151 26.3206L10.423 38.209L4.1062 40.8949V42.7329C4.1062 43.2743 4.462 43.8135 5.17218 44.2255L55.4092 73.2307V37.7104Z" fill="#1E211E"/>
<path d="M57.9196 72.1183C59.3421 72.9381 61.6672 72.9381 63.089 72.1183L88.9328 57.1974C90.3539 56.3762 90.3539 55.0331 88.9328 54.2133L32.0798 21.3875C30.6575 20.5677 28.3322 20.5677 26.9092 21.3875" fill="#474C47"/>
<path d="M29.6336 23.665C29.1526 23.3872 28.3687 23.3872 27.8906 23.665C27.4097 23.9414 27.4097 24.3941 27.8906 24.6705C28.3687 24.9483 29.1528 24.9483 29.6336 24.6705C30.1118 24.3941 30.1118 23.9407 29.6336 23.665Z" fill="#373A37"/>
<path d="M11.4313 33.2235C11.0607 33.0105 10.4575 33.0105 10.0911 33.2235C9.72337 33.4365 9.72337 33.7825 10.0911 33.9955C10.4575 34.2085 11.0607 34.2085 11.4313 33.9955C11.7975 33.7825 11.7975 33.4365 11.4313 33.2235Z" fill="#FFBC02"/>
<path d="M8.80794 34.6873C8.43875 34.4743 7.83551 34.4743 7.46775 34.6873C7.10141 34.9002 7.10141 35.2469 7.46775 35.4599C7.83551 35.6722 8.43875 35.6722 8.80794 35.4599C9.17642 35.2469 9.17642 34.9002 8.80794 34.6873Z" fill="#FFBC02"/>
<path d="M13.7825 31.1532C13.3894 31.3796 13.3894 31.751 13.7825 31.9773C14.1769 32.2051 14.8167 32.2051 15.2105 31.9773L20.922 28.679C21.3163 28.4541 21.3163 28.0813 20.922 27.8564C20.5317 27.6286 19.8878 27.6286 19.4939 27.8564L13.7825 31.1532Z" fill="#1E211E"/>
<path d="M13.7825 30.7567C13.3894 30.9845 13.3894 31.3544 13.7825 31.5822C14.1769 31.8085 14.8167 31.8085 15.2105 31.5822L20.922 28.2839C21.3163 28.0582 21.3163 27.6862 20.922 27.4598C20.5317 27.2334 19.8878 27.2334 19.4939 27.4598L13.7825 30.7567Z" fill="#373A37"/>
<path d="M19.4939 27.4587L13.9196 30.6775C14.3127 30.8433 14.8547 30.8505 15.2105 30.6459L20.7848 27.4256C20.3917 27.2612 19.849 27.2541 19.4939 27.4587Z" fill="#3F443F"/>
<path d="M4.1062 40.8941L34.8522 23.1423L86.0963 52.7282L55.3517 70.4798L4.1062 40.8941Z" fill="#373A37"/>
<path d="M34.8523 23.1423L86.0963 52.7282L55.3518 70.4798" fill="#1E211E"/>
<path d="M70.4687 65.243C70.1284 65.243 69.8057 65.1657 69.5609 65.0236C69.2845 64.864 69.134 64.6418 69.134 64.3972C69.134 64.1524 69.2852 63.9303 69.5609 63.7707L76.1239 59.9817C76.3686 59.8403 76.6912 59.7623 77.0329 59.7623C77.3746 59.7623 77.6974 59.8396 77.9407 59.9817C78.2114 60.1377 78.3676 60.3655 78.3676 60.6074C78.3676 60.8493 78.2109 61.0771 77.9407 61.2331L71.3765 65.0236C71.1317 65.1656 70.8091 65.243 70.4687 65.243Z" fill="#1E211E"/>
<path d="M59.975 14.8715C63.8235 14.7334 68.7771 16.3393 72.5947 18.9626C76.4478 21.6101 80.4168 25.9328 81.7348 29.6721C82.1236 30.7752 83.2665 31.4624 84.3651 31.2949C84.4435 31.283 84.5221 31.2664 84.5997 31.2458C85.7654 30.9329 86.3726 29.7213 85.9559 28.5392C84.2896 23.8125 79.681 18.6561 74.9386 15.3974C70.2406 12.1691 64.3004 10.2723 59.4356 10.4467C58.207 10.4897 57.3315 11.5173 57.4802 12.7389C57.629 13.9606 58.7457 14.9155 59.975 14.8715Z" fill="#41BECE"/>
<path d="M60.4877 25.0014C62.5205 24.9289 65.6098 25.9858 67.8331 27.5144C70.0755 29.0563 72.2083 31.609 72.9043 33.585C73.2842 34.6631 74.4004 35.3346 75.4731 35.1711C75.5497 35.1594 75.6262 35.1433 75.702 35.1232C76.8402 34.8176 77.4333 33.6337 77.0262 32.4788C75.8376 29.1053 72.7015 25.805 70.121 24.0309C67.5637 22.2725 63.43 20.5541 59.9603 20.6778C58.7588 20.7194 57.9054 21.7234 58.0509 22.917C58.1967 24.1109 59.2877 25.0443 60.4877 25.0014Z" fill="#41BECE"/>
</g>
<defs>
<clipPath id="clip0_192_4919">
<rect width="90" height="90" fill="white"/>
</clipPath>
</defs>
</svg>
