<?xml version="1.0" encoding="UTF-8"?>
<svg id="_Слой_2" data-name="Слой 2" xmlns="http://www.w3.org/2000/svg" xmlns:xlink="http://www.w3.org/1999/xlink" viewBox="0 0 127.39 147.41">
  <defs>
    <style>
      .cls-1 {
        fill: #fffbf7;
      }

      .cls-1, .cls-2, .cls-3, .cls-4, .cls-5, .cls-6, .cls-7, .cls-8, .cls-9, .cls-10, .cls-11, .cls-12, .cls-13 {
        stroke-width: 0px;
      }

      .cls-2, .cls-7 {
        fill: #000;
      }

      .cls-3 {
        fill: url(#_Новый_образец_градиента_2-3);
      }

      .cls-4 {
        fill: url(#_Новый_образец_градиента_2-4);
      }

      .cls-5 {
        fill: #fdedb7;
      }

      .cls-6 {
        fill: #b28428;
      }

      .cls-7 {
        opacity: .2;
      }

      .cls-8 {
        fill: url(#_Новый_образец_градиента_2-2);
      }

      .cls-9 {
        fill: url(#_Новый_образец_градиента_1);
      }

      .cls-10 {
        fill: url(#_Новый_образец_градиента_2);
      }

      .cls-11 {
        fill: url(#_Новый_образец_градиента_3);
      }

      .cls-12 {
        fill: url(#_Безымянный_градиент_57);
      }

      .cls-14 {
        opacity: .15;
      }

      .cls-13 {
        fill: #8a451f;
      }
    </style>
    <linearGradient id="_Новый_образец_градиента_1" data-name="Новый образец градиента 1" x1="68.42" y1="147.41" x2="68.42" y2="0" gradientUnits="userSpaceOnUse">
      <stop offset="0" stop-color="#b68800"/>
      <stop offset="1" stop-color="#e5b421"/>
    </linearGradient>
    <linearGradient id="_Новый_образец_градиента_3" data-name="Новый образец градиента 3" x1="2.97" y1="73.27" x2="114.98" y2="73.27" gradientUnits="userSpaceOnUse">
      <stop offset="0" stop-color="#ffbc02"/>
      <stop offset="1" stop-color="#fbd24c"/>
    </linearGradient>
    <radialGradient id="_Безымянный_градиент_57" data-name="Безымянный градиент 57" cx="57.64" cy="80.8" fx="57.64" fy="80.8" r="15.74" gradientTransform="translate(34.13 134.74) rotate(-78.04) scale(1 .15)" gradientUnits="userSpaceOnUse">
      <stop offset="0" stop-color="#ab712f"/>
      <stop offset="1" stop-color="#8a451f"/>
    </radialGradient>
    <linearGradient id="_Новый_образец_градиента_2" data-name="Новый образец градиента 2" x1="84.18" y1="64.49" x2="84.18" y2="31.51" gradientUnits="userSpaceOnUse">
      <stop offset="0" stop-color="#c5002d"/>
      <stop offset="1" stop-color="#ff0c47"/>
    </linearGradient>
    <linearGradient id="_Новый_образец_градиента_2-2" data-name="Новый образец градиента 2" x1="67.57" y1="29.74" x2="74.21" y2="29.74" xlink:href="#_Новый_образец_градиента_2"/>
    <linearGradient id="_Новый_образец_градиента_2-3" data-name="Новый образец градиента 2" x1="42.77" y1="29.3" x2="67.57" y2="29.3" xlink:href="#_Новый_образец_градиента_2"/>
    <linearGradient id="_Новый_образец_градиента_2-4" data-name="Новый образец градиента 2" x1="51.73" y1="63.49" x2="51.73" y2="31.48" xlink:href="#_Новый_образец_градиента_2"/>
  </defs>
  <g id="Content">
    <g>
      <path class="cls-9" d="M120.68,59.82c.93,5.35,6.7,6.76,6.7,14.89-.89,9.12-10.23,11.54-12.67,15.9-1.2,2.15,2.13,12.87-2.77,18.66-4.29,5.07-17.59,2.93-19.87,6.26l-20.07,27.78c-4.13,6.02-15.15,4.39-17.2,1.51l-11.88-29.57c-2.42-3.59-13.25.12-18.34-4.79-4.58-4.42-2-13.35-2-16.17,0-6.53-12.24-11.24-13.08-19.59-.6-5.98,3.08-9.54,4.01-14.89,1.02-5.85-2.26-11.62-.08-17.5,2.02-5.45,7.84-6.39,10.58-10.86,3.01-4.91,1.54-11.44,5.82-15.9,3.9-4.06,9.16-1.35,13.25-3.92,4.45-2.8,11.24-2.28,16.91-3.96,5.44-1.61,3.28-6.67,7.99-7.34,4.54-.5,7.68-.66,13.12.95,5.67,1.68,5.55,7.55,9.99,10.35,4.08,2.57,9.35-.14,13.25,3.92,4.28,4.45,2.82,10.99,5.82,15.9,2.74,4.47,8.57,5.42,10.58,10.86,2.18,5.88-1.1,11.65-.08,17.5Z"/>
      <g>
        <path class="cls-11" d="M58.06,143.32c-.61,0-1.19-.33-1.62-.94l-20.53-28.85c-1.93-2.85-5.69-2.98-9.67-3.11-3.33-.11-7.11-.24-9.03-2.09-2.53-2.44-1.81-7.87-1.37-11.12.16-1.18.28-2.12.28-2.91,0-4.41-3.46-7.72-6.8-10.93-2.94-2.81-5.97-5.72-6.3-8.96-.28-2.83.68-5.04,1.8-7.6.82-1.88,1.75-4,2.18-6.48.53-3.05.1-5.9-.31-8.65-.46-3.09-.86-5.75.09-8.33.81-2.18,2.59-3.45,4.66-4.92,1.94-1.37,4.13-2.93,5.66-5.43,1.6-2.61,2.14-5.51,2.62-8.07.55-2.93,1.02-5.45,2.81-7.32,1.32-1.37,2.85-1.52,5.44-1.66,2.25-.12,4.81-.27,7.25-1.8,2.51-1.58,3.97-3.94,5.27-6.03,1.58-2.54,2.64-4.13,4.67-4.73.38-.11.75-.17,1.11-.17,1.33,0,2.67.8,4.22,1.73,1.99,1.19,4.25,2.54,7.17,2.54s5.17-1.35,7.17-2.54c1.55-.93,2.89-1.73,4.22-1.73.36,0,.72.05,1.11.17,2.02.6,3.09,2.19,4.67,4.73,1.29,2.08,2.76,4.45,5.27,6.03,2.44,1.53,5,1.67,7.25,1.8,2.59.14,4.12.29,5.44,1.66,1.79,1.86,2.26,4.39,2.81,7.32.48,2.56,1.02,5.46,2.62,8.07,1.53,2.5,3.73,4.06,5.66,5.43,2.07,1.47,3.86,2.74,4.66,4.91.95,2.57.55,5.24.09,8.33-.41,2.75-.84,5.6-.31,8.65.52,2.98,2.12,4.98,3.53,6.75,1.66,2.08,3.09,3.88,3.13,7.48-.51,4.51-3.8,7-7,9.4-2.12,1.6-4.13,3.12-5.3,5.2-.83,1.49-.71,3.35-.53,6.18.24,3.83.57,9.08-1.91,12.01-1.61,1.89-6.26,2.45-10,2.9-4.44.53-8.27.99-10.05,3.6l-20.57,28.6c-.4.54-.96.86-1.56.86Z"/>
        <path class="cls-5" d="M46.27,6.2c.51,0,1.73.72,2.7,1.31,2.09,1.25,4.95,2.96,8.69,2.96s6.6-1.71,8.69-2.96c.97-.58,2.18-1.31,2.7-1.31.03,0,.11,0,.27.05.94.28,1.64,1.27,2.99,3.45,1.39,2.24,3.12,5.03,6.21,6.98,3.09,1.94,6.31,2.12,8.66,2.25,2.4.13,2.99.26,3.46.76,1.12,1.17,1.5,2.97,2.03,5.81.53,2.81,1.12,6,3.01,9.08,1.85,3.01,4.41,4.83,6.48,6.3,1.99,1.41,3.13,2.27,3.6,3.52.69,1.86.36,4.07-.06,6.86-.43,2.85-.91,6.08-.3,9.6.65,3.73,2.58,6.15,4.13,8.09,1.54,1.93,2.41,3.03,2.48,5.48-.4,2.97-2.49,4.69-5.81,7.19-2.28,1.72-4.63,3.49-6.1,6.12-1.26,2.25-1.1,4.7-.9,7.82.2,3.14.5,7.88-1.21,9.9-.95,1.02-5.96,1.62-8.1,1.88-4.9.59-9.54,1.14-12.09,4.8l-19.73,27.43-19.71-27.68c-2.82-4.09-7.71-4.26-12.02-4.4-2.52-.09-5.97-.2-7.07-1.26-1.45-1.4-.78-6.44-.49-8.59.17-1.24.31-2.31.31-3.31,0-5.68-4.1-9.6-7.71-13.07-2.55-2.44-5.18-4.97-5.4-7.11-.2-1.96.44-3.52,1.57-6.11.89-2.03,1.89-4.33,2.39-7.16.62-3.53.13-6.75-.3-9.6-.42-2.79-.75-5-.06-6.86.47-1.26,1.55-2.08,3.6-3.52,2.06-1.46,4.63-3.28,6.48-6.3,1.89-3.08,2.48-6.27,3.01-9.08.53-2.84.91-4.64,2.03-5.81.48-.5,1.06-.62,3.46-.76,2.35-.13,5.58-.31,8.66-2.25,3.09-1.94,4.82-4.73,6.21-6.97,1.35-2.18,2.04-3.17,2.99-3.45.16-.05.24-.05.27-.05M46.27.26c-.62,0-1.27.09-1.95.29-5.67,1.68-6.22,8.29-10.67,11.09-4.08,2.57-9.35-.14-13.25,3.92-4.28,4.46-2.82,10.99-5.82,15.9-2.74,4.47-8.56,5.41-10.58,10.86-2.18,5.88,1.1,11.65.08,17.5-.93,5.35-4.62,8.91-4.01,14.89.84,8.34,13.08,13.06,13.08,19.59,0,2.82-2.58,11.75,2,16.17,5.09,4.91,15.92,1.2,18.34,4.79l20.53,28.85c1.04,1.46,2.53,2.19,4.03,2.19s2.93-.7,3.97-2.09l20.61-28.66c2.27-3.33,15.57-1.19,19.87-6.26,4.9-5.79,1.57-16.51,2.77-18.66,2.44-4.36,11.78-6.79,12.67-15.9,0-8.13-5.77-9.54-6.7-14.89-1.02-5.85,2.26-11.62.08-17.5-2.01-5.44-7.84-6.39-10.58-10.86-3.01-4.9-1.54-11.45-5.82-15.9-3.9-4.06-9.16-1.35-13.25-3.92-4.45-2.8-5-9.41-10.67-11.09-.68-.2-1.33-.29-1.95-.29-4.29,0-7.17,4.26-11.39,4.26S50.56.26,46.27.26h0Z"/>
      </g>
      <g class="cls-14">
        <path class="cls-2" d="M43.52,34.16l-.19.05c7.25-4.93,14.25-5.98,20.03-2.91.2.08.4.17.6.25,1.91-.17,3.03-.42,4.88-.84v-.02s.03.02.03.02h.02c.29.16.56.31.82.46,1.52.81,2.71,1.35,5.04,2.08,6.58.1,12.06,3.93,14.56,8.12.14.16.28.31.41.47,4.38,3.99,7.58,9.4,10.68,15.69.3.58.6,1.18.91,1.81h-.03s.05.1.05.1c-5.48,0-8.81,3.28-11.58,7.77v-.02c-11.79-3.24-17.9-3.69-25.05-1.73l-5.01,23.44c-.02.08-.08.16-.15.19-2.05.92-3.68.54-4.65-.96-.04-.06-.05-.14-.04-.21l5.32-23.16c-.16-.11-.31-.22-.47-.33-4.12-2.86-7.64-4.66-11.52-5.85-3.35-1.01-7.06-1.61-11.69-2.04h0s-.03-.02-.03-.02l.02-.04c-1.85-6.05-3.53-8.3-7.58-11.33,2.89-4.84,5.81-7.11,14.33-10.81.1-.06.2-.13.3-.19Z"/>
      </g>
      <path class="cls-12" d="M54.3,85.21l5.73-24.97,5.3-2.99-6.19,28.93c-.02.08-.08.16-.15.19-2.05.92-3.68.54-4.65-.96-.04-.06-.05-.14-.04-.21Z"/>
      <path class="cls-1" d="M35.93,53.82c-1.85-6.1-3.53-8.34-7.6-11.39,2.89-4.84,5.81-7.11,14.33-10.81,8.27-5.18,14.34-5.58,20.74-2.8,1.93-.17,3.05-.42,4.93-.85,2.07,1.19,3.27,1.79,5.59,2.54,6.7,0,12.29,3.88,14.83,8.13,5.27,5.98,7.98,9.85,12.01,17.97-6.11.34-8.25,2.73-11.56,7.85-13.17-3.61-19.25-3.76-27.61-.94-8.51-6.58-14.31-8.65-25.66-9.7Z"/>
      <path class="cls-10" d="M89.2,64.49c-2.53-15.36-7.38-26.1-21.63-32.98,19.17,0,26.25,10.68,33.21,25.21-5.48,0-8.81,3.28-11.58,7.77Z"/>
      <path class="cls-8" d="M74.21,30.53c-2.76-.86-3.93-1.46-5.92-2.56l-.72,3.54c1.76-.74,3.7-.96,6.64-.98Z"/>
      <path class="cls-3" d="M67.57,31.51c-7.43-1.79-13.79-2.59-24.8-.02,8.76-5.95,18.47-5.78,24.8.02Z"/>
      <path class="cls-4" d="M67.57,31.51c-11.96-.64-24.78,8.52-31.67,22.3,10.88,1,16.63,2.87,25.71,9.68,3.47-14.5,5.41-24.42,5.96-31.98Z"/>
      <path class="cls-13" d="M69.5,32.01c-.13.51-1.1.71-2.17.43s-1.82-.91-1.69-1.43c.13-.51,1.1-.71,2.17-.43s1.82.91,1.69,1.43Z"/>
      <g class="cls-14">
        <path class="cls-2" d="M55.71,93.21l.45.43c2.9-.95,5.43-2.53,7.3-4.16l-7.75,3.72ZM63.11,84.08l.73.67-6.86,3.22c-8.44-4.16-14.37-16.89-17.09-25.22l.81.74-.61-3.25-.48-.45c-.22-.17-.65-.21-1.12-.13-.15-.05-.3-.08-.46-.09-.06,0-.12,0-.18,0l-16.6.15h-.03s-1.8,0-1.8,0c-1.84.26-2.36,1.46-2.25,2.81l3.38,3.27c.58,10.16,8.16,24.35,22.27,29.04l-11.24,5.55c-.41,1.91.67,3.32,2.45,3.32l17.13-8.32,8.74,8.63.04.04c1.65.23,3.98-.79,3.9-2.78l-3.5-3.58c4.22-.31,7.89-1.03,11-2l6.4,6.85.04.04c2.19.17,3.57-.39,3.57-2.6l-5.61-5.95c3.87-1.77,6.49-3.87,7.92-5.7l3.31-1.6c.76-.99-.44-3.6-2.36-3.25-.03,0-.06,0-.1,0-.03,0-.06,0-.1,0l-1.14.55h-16.33c-.4-.22-.85-.31-1.3-.2-.09,0-.18.02-.27.05l-.11.05-.61-.58-1.56.72Z"/>
      </g>
      <path class="cls-6" d="M68.57,88.05l2.99-1.01,12.12,12.27c0,2.21-1.39,2.78-3.57,2.6l-11.54-13.86Z"/>
      <path class="cls-6" d="M69.43,93.43c-1.31-.36-1.97-1.34-1.58-3.15l17.29-8.87c1.99-.49,3.26,2.21,2.48,3.22l-18.2,8.79Z"/>
      <path class="cls-13" d="M68.63,93.25c-1.31-.36-1.97-1.34-1.58-3.15l18.02-8.71c1.46-.13,2.39,2.05,1.76,3.06l-18.2,8.8Z"/>
      <path class="cls-13" d="M66.87,88.35c-.11-1.35.41-2.55,2.25-2.81l13.2,13.75c-.19,1.73-.79,2.4-2.25,2.59l-13.2-13.52Z"/>
      <path class="cls-1" d="M65.37,86.18c-1.95,2.06-5.09,4.27-8.82,5.44l3.9,4.02c14.36-.92,22.37-6.62,24.54-10.39.8-1.39-.11-3.3-.86-3.3h-17.37l-1.39,4.24Z"/>
      <path class="cls-1" d="M38.5,57.47l-16.62.15c-3.19,9.42,4.39,29.57,21.84,35.2l13.92-6.94c-10.58-5.22-14.9-16.21-17.37-26.72-.32-1.35-.94-1.69-1.76-1.69Z"/>
      <path class="cls-6" d="M20.07,57.62h1.83s43.99,42.74,43.99,42.74c.08,1.99-2.25,3-3.9,2.78L20.07,57.62Z"/>
      <path class="cls-13" d="M17.82,60.43c-.11-1.35.41-2.55,2.25-2.81l44.13,42.89c-.19,1.73-.79,2.4-2.25,2.59L17.82,60.43Z"/>
      <path class="cls-6" d="M31.9,102.86c-1.32,0-2.88-1.32-2.48-3.14l36.74-17.94c1.95-.71,4.02,2.7,2.25,3.53l-36.51,17.55Z"/>
      <path class="cls-13" d="M31.03,102.69c-1.31-.36-1.97-1.34-1.58-3.15l36.59-17.75c1.76-.49,3.08,2.66,1.43,3.41l-36.44,17.49Z"/>
      <polygon class="cls-7" points="56.35 91.11 51.8 93.29 53.64 95.08 56.94 93.44 58.32 93.03 56.35 91.11"/>
    </g>
  </g>
</svg>