<svg width="360" height="127" viewBox="0 0 360 127" fill="none" xmlns="http://www.w3.org/2000/svg">
<g clip-path="url(#clip0_212_7894)">
<path d="M7.62939e-06 -70H360V43.5C292.5 37 252.5 104.08 156.5 52.5C60.5 0.919861 10.5 29.5 0 29.5L7.62939e-06 -70Z" fill="url(#paint0_linear_212_7894)" fill-opacity="0.07"/>
<path d="M0 0H360V145C338.5 121.887 290.5 77.4278 197 97C103.5 116.572 73.5 50 0 64V0Z" fill="url(#paint1_linear_212_7894)" fill-opacity="0.07"/>
<path d="M0 0H360V50.5C318.5 34.3589 241 1.7646 157.5 38.1411C74 74.5176 59.5186 28.1196 0 16.7139V0Z" fill="url(#paint2_linear_212_7894)" fill-opacity="0.07"/>
</g>
<defs>
<linearGradient id="paint0_linear_212_7894" x1="180" y1="-20" x2="180" y2="78.4999" gradientUnits="userSpaceOnUse">
<stop stop-color="#41BECE"/>
<stop offset="1"/>
</linearGradient>
<linearGradient id="paint1_linear_212_7894" x1="180" y1="14.5" x2="180" y2="85.5" gradientUnits="userSpaceOnUse">
<stop stop-color="#41BECE"/>
<stop offset="1"/>
</linearGradient>
<linearGradient id="paint2_linear_212_7894" x1="180" y1="12" x2="180" y2="49" gradientUnits="userSpaceOnUse">
<stop stop-color="#41BECE"/>
<stop offset="1"/>
</linearGradient>
<clipPath id="clip0_212_7894">
<rect width="360" height="127" fill="white"/>
</clipPath>
</defs>
</svg>
